G04 #@! TF.GenerationSoftware,KiCad,Pcbnew,8.0.1*
G04 #@! TF.CreationDate,2024-04-28T03:10:51-05:00*
G04 #@! TF.ProjectId,mini_ble,6d696e69-5f62-46c6-952e-6b696361645f,rev?*
G04 #@! TF.SameCoordinates,Original*
G04 #@! TF.FileFunction,Copper,L1,Top*
G04 #@! TF.FilePolarity,Positive*
%FSLAX46Y46*%
G04 Gerber Fmt 4.6, Leading zero omitted, Abs format (unit mm)*
G04 Created by KiCad (PCBNEW 8.0.1) date 2024-04-28 03:10:51*
%MOMM*%
%LPD*%
G01*
G04 APERTURE LIST*
G04 Aperture macros list*
%AMRoundRect*
0 Rectangle with rounded corners*
0 $1 Rounding radius*
0 $2 $3 $4 $5 $6 $7 $8 $9 X,Y pos of 4 corners*
0 Add a 4 corners polygon primitive as box body*
4,1,4,$2,$3,$4,$5,$6,$7,$8,$9,$2,$3,0*
0 Add four circle primitives for the rounded corners*
1,1,$1+$1,$2,$3*
1,1,$1+$1,$4,$5*
1,1,$1+$1,$6,$7*
1,1,$1+$1,$8,$9*
0 Add four rect primitives between the rounded corners*
20,1,$1+$1,$2,$3,$4,$5,0*
20,1,$1+$1,$4,$5,$6,$7,0*
20,1,$1+$1,$6,$7,$8,$9,0*
20,1,$1+$1,$8,$9,$2,$3,0*%
G04 Aperture macros list end*
G04 #@! TA.AperFunction,ComponentPad*
%ADD10R,4.000000X3.000000*%
G04 #@! TD*
G04 #@! TA.AperFunction,SMDPad,CuDef*
%ADD11R,1.300000X2.000000*%
G04 #@! TD*
G04 #@! TA.AperFunction,ComponentPad*
%ADD12R,1.700000X1.400000*%
G04 #@! TD*
G04 #@! TA.AperFunction,ComponentPad*
%ADD13R,2.050000X1.400000*%
G04 #@! TD*
G04 #@! TA.AperFunction,SMDPad,CuDef*
%ADD14RoundRect,0.147500X0.147500X0.172500X-0.147500X0.172500X-0.147500X-0.172500X0.147500X-0.172500X0*%
G04 #@! TD*
G04 #@! TA.AperFunction,SMDPad,CuDef*
%ADD15RoundRect,0.147500X-0.147500X-0.172500X0.147500X-0.172500X0.147500X0.172500X-0.147500X0.172500X0*%
G04 #@! TD*
G04 #@! TA.AperFunction,ComponentPad*
%ADD16C,2.600000*%
G04 #@! TD*
G04 #@! TA.AperFunction,ComponentPad*
%ADD17O,1.000000X1.600000*%
G04 #@! TD*
G04 #@! TA.AperFunction,ComponentPad*
%ADD18O,0.900000X2.100000*%
G04 #@! TD*
G04 #@! TA.AperFunction,SMDPad,CuDef*
%ADD19R,0.300000X1.750000*%
G04 #@! TD*
G04 #@! TA.AperFunction,ViaPad*
%ADD20C,0.700000*%
G04 #@! TD*
G04 #@! TA.AperFunction,Conductor*
%ADD21C,0.500000*%
G04 #@! TD*
G04 #@! TA.AperFunction,Conductor*
%ADD22C,0.700000*%
G04 #@! TD*
G04 #@! TA.AperFunction,Conductor*
%ADD23C,0.300000*%
G04 #@! TD*
G04 #@! TA.AperFunction,Conductor*
%ADD24C,0.200000*%
G04 #@! TD*
G04 #@! TA.AperFunction,Conductor*
%ADD25C,0.250000*%
G04 #@! TD*
G04 #@! TA.AperFunction,Conductor*
%ADD26C,0.400000*%
G04 #@! TD*
G04 APERTURE END LIST*
D10*
X150800000Y-94600000D03*
X150800000Y-115600000D03*
D11*
X189660000Y-101040000D03*
X187120000Y-101040000D03*
X182040000Y-118650000D03*
X179500000Y-118650000D03*
X176960000Y-118650000D03*
X174420000Y-118650000D03*
X182040000Y-94240000D03*
X179500000Y-94240000D03*
X176960000Y-94240000D03*
X174420000Y-94240000D03*
D12*
X216075000Y-111100000D03*
X216075000Y-99100000D03*
D13*
X220425000Y-111100000D03*
X220425000Y-99100000D03*
D14*
X210115000Y-98300000D03*
X211085000Y-98300000D03*
D15*
X220985000Y-96800000D03*
X220015000Y-96800000D03*
D16*
X218500000Y-116400000D03*
X221000000Y-92600000D03*
X151000000Y-119100000D03*
X151000000Y-91100000D03*
D17*
X218620000Y-90830000D03*
X209980000Y-90830000D03*
D18*
X218620000Y-95010000D03*
X209980000Y-95010000D03*
D19*
X214050000Y-95850000D03*
X213550000Y-95850000D03*
X213050000Y-95850000D03*
X212550000Y-95850000D03*
X215050000Y-95850000D03*
X216050000Y-95850000D03*
X215550000Y-95850000D03*
X214550000Y-95850000D03*
X217650000Y-95850000D03*
X217350000Y-95850000D03*
X216850000Y-95850000D03*
X216550000Y-95850000D03*
X211750000Y-95850000D03*
X212050000Y-95850000D03*
X211250000Y-95850000D03*
X210950000Y-95850000D03*
D20*
X176500000Y-116200000D03*
X177500000Y-91800000D03*
X154700000Y-112450000D03*
X154700000Y-110350000D03*
X154700000Y-107200000D03*
X154700000Y-103350000D03*
X154700000Y-100900000D03*
X163500000Y-98600000D03*
X162400000Y-96500000D03*
X165900000Y-93300000D03*
X173650000Y-92650000D03*
X169300000Y-91700000D03*
X169400000Y-93200000D03*
X160200000Y-115100000D03*
X162100000Y-115100000D03*
X164000000Y-115100000D03*
X165900000Y-115100000D03*
X157100000Y-94900000D03*
X159600000Y-105100000D03*
X172200000Y-103100000D03*
X169100000Y-102600000D03*
X178300000Y-98500000D03*
X181200000Y-101200000D03*
X180300000Y-90350000D03*
X181700000Y-90350000D03*
X185600000Y-90399990D03*
X166500000Y-110900000D03*
X170450000Y-110800000D03*
X180431250Y-108468750D03*
X179143750Y-108468750D03*
X177856250Y-108468750D03*
X176568750Y-108468750D03*
X176568750Y-109756250D03*
X177856250Y-109756250D03*
X179143750Y-109756250D03*
X180431250Y-109756250D03*
X176568750Y-111043750D03*
X177856250Y-111043750D03*
X179143750Y-111043750D03*
X180431250Y-111043750D03*
X180431250Y-112331250D03*
X179143750Y-112331250D03*
X177856250Y-112331250D03*
X176568750Y-112331250D03*
X173200000Y-118700000D03*
X189900000Y-97400000D03*
X200400000Y-93600000D03*
X200400000Y-95000000D03*
X204200000Y-107500000D03*
X204450000Y-102200000D03*
X191300000Y-102850000D03*
X204200000Y-101100000D03*
X200800000Y-104650000D03*
X195400000Y-98500000D03*
X191000000Y-100050000D03*
X192387500Y-95262500D03*
X194112500Y-95262500D03*
X192387500Y-93537500D03*
X194112500Y-93537500D03*
X193300000Y-94400000D03*
X185900000Y-105700000D03*
X186600000Y-110000000D03*
X197800000Y-98600000D03*
X204200000Y-106049990D03*
X167873976Y-100200000D03*
X195650000Y-111550000D03*
X194400000Y-108400000D03*
X196650000Y-105750000D03*
X197600000Y-105750000D03*
X198550000Y-105750000D03*
X197600000Y-104800000D03*
X196650000Y-104800000D03*
X198550000Y-104800000D03*
X197600000Y-103850000D03*
X196650000Y-103850000D03*
X198550000Y-103850000D03*
X210400000Y-99800000D03*
X205499101Y-100899453D03*
X205300000Y-101800000D03*
X221799972Y-96800000D03*
X201900000Y-91800000D03*
X204300000Y-93200000D03*
X202600000Y-100000000D03*
X206050000Y-104600000D03*
X206700000Y-106250000D03*
X171549998Y-90950000D03*
X170350000Y-91000000D03*
X166600000Y-90700000D03*
X162400000Y-98100000D03*
X162400000Y-99600000D03*
X162400000Y-101100000D03*
X162400000Y-102600000D03*
X162400000Y-104100000D03*
X165400000Y-101050000D03*
X163750000Y-100650000D03*
X162900000Y-100350000D03*
X159500036Y-93800000D03*
X180000000Y-117000000D03*
X173100000Y-114750000D03*
X173850000Y-106850000D03*
X168300000Y-92000000D03*
X207250000Y-96800000D03*
X174850000Y-116950000D03*
X178400000Y-91800000D03*
X189900000Y-96150000D03*
X154700000Y-101950000D03*
X185000000Y-95900000D03*
X174100000Y-110900000D03*
X177000000Y-99450000D03*
X177100000Y-101300000D03*
X182000000Y-106100000D03*
X196900000Y-94900000D03*
X200500000Y-103250000D03*
X194650000Y-103500000D03*
X185400000Y-108600000D03*
X183500000Y-110900000D03*
X201700000Y-97400000D03*
X175300000Y-99100000D03*
X209400000Y-104250000D03*
X168750010Y-114650000D03*
X179000000Y-114900026D03*
X199400000Y-92400000D03*
X186200000Y-94000000D03*
X168749990Y-115700000D03*
X197600000Y-107700000D03*
X200600000Y-106000000D03*
X195400000Y-102200000D03*
X205150000Y-105000000D03*
X216700000Y-97350000D03*
X212000000Y-97399996D03*
X196000000Y-97700000D03*
X202700000Y-98100000D03*
X190700000Y-91900000D03*
X198400000Y-96700000D03*
X197200000Y-97800000D03*
X202600000Y-99100000D03*
X183200000Y-93300000D03*
X178250000Y-94250000D03*
X180400000Y-99700000D03*
X180700000Y-94899968D03*
X174100000Y-112900000D03*
X175600000Y-104250000D03*
X180800000Y-118700000D03*
X160200000Y-110900000D03*
X162100000Y-110900000D03*
X164000000Y-110900000D03*
X158800000Y-96700000D03*
X165500000Y-110900000D03*
X162750000Y-107100000D03*
X163650000Y-107100000D03*
X164550000Y-107100000D03*
X187400000Y-106700000D03*
X188800000Y-106800000D03*
X170100000Y-113200000D03*
X180100000Y-115250000D03*
X184000000Y-107700000D03*
X218200000Y-99000000D03*
X185599996Y-112599990D03*
X218200000Y-110999986D03*
X214100000Y-97400010D03*
X214800000Y-94400000D03*
X173350000Y-102900000D03*
X207700000Y-108500000D03*
X206900000Y-108000000D03*
X182200000Y-115000000D03*
X171000000Y-98300000D03*
X170650000Y-107000000D03*
X206500000Y-92100000D03*
X182350000Y-116100000D03*
X186000000Y-107700000D03*
X212199988Y-109599988D03*
X174300000Y-99100000D03*
X160200000Y-92900000D03*
X189124272Y-92575728D03*
X164500000Y-95300000D03*
X194000000Y-97950000D03*
X159000000Y-92900000D03*
X189700000Y-91800000D03*
X155000000Y-91800000D03*
X193900000Y-90300000D03*
X165900000Y-94250000D03*
X193150000Y-90900000D03*
X167850000Y-99149996D03*
X178250000Y-119200000D03*
X171500000Y-116850000D03*
X167200000Y-115150000D03*
X201900000Y-94500000D03*
X184050000Y-113250000D03*
X186200000Y-104600000D03*
X183200000Y-111900000D03*
X204500000Y-99000000D03*
X183129709Y-113249990D03*
D21*
X174420000Y-118650000D02*
X173250000Y-118650000D01*
X173250000Y-118650000D02*
X173200000Y-118700000D01*
X190650000Y-100050000D02*
X189660000Y-101040000D01*
X191000000Y-100050000D02*
X190650000Y-100050000D01*
D22*
X209980000Y-90830000D02*
X209980000Y-95010000D01*
X218620000Y-90830000D02*
X218620000Y-95010000D01*
X210820000Y-95850000D02*
X209980000Y-95010000D01*
X210950000Y-95850000D02*
X210820000Y-95850000D01*
D23*
X210150000Y-95180000D02*
X209980000Y-95010000D01*
D22*
X217780000Y-95850000D02*
X218620000Y-95010000D01*
X217650000Y-95850000D02*
X217780000Y-95850000D01*
D24*
X217350000Y-95850000D02*
X217650000Y-95850000D01*
X211250000Y-95850000D02*
X210950000Y-95850000D01*
D23*
X220985000Y-96800000D02*
X221799972Y-96800000D01*
X211250000Y-96575000D02*
X211250000Y-95850000D01*
X210115000Y-97710000D02*
X211250000Y-96575000D01*
X210115000Y-98300000D02*
X210115000Y-97710000D01*
D21*
X205950000Y-98100000D02*
X207250000Y-96800000D01*
X204100000Y-98100000D02*
X205950000Y-98100000D01*
X203600000Y-98600000D02*
X204100000Y-98100000D01*
X203600000Y-100350000D02*
X203600000Y-98600000D01*
X203000000Y-100950000D02*
X203600000Y-100350000D01*
X200677782Y-99377782D02*
X202250000Y-100950000D01*
X193477782Y-99377782D02*
X200677782Y-99377782D01*
X192700000Y-97600000D02*
X192700000Y-98600000D01*
X192700000Y-98600000D02*
X193477782Y-99377782D01*
X158054671Y-92345329D02*
X158054671Y-94754671D01*
X186855562Y-93144438D02*
X187605562Y-93894438D01*
X159300000Y-91100000D02*
X158054671Y-92345329D01*
X202250000Y-100950000D02*
X203000000Y-100950000D01*
X185559045Y-93144438D02*
X186855562Y-93144438D01*
X164100000Y-91100000D02*
X159300000Y-91100000D01*
X187605562Y-93894438D02*
X188994438Y-93894438D01*
X168300000Y-92000000D02*
X165000000Y-92000000D01*
X164050000Y-96400000D02*
X182300000Y-96400000D01*
X188994438Y-93894438D02*
X192700000Y-97600000D01*
X165000000Y-92000000D02*
X164100000Y-91100000D01*
X159000000Y-95700000D02*
X163350000Y-95700000D01*
X163350000Y-95700000D02*
X164050000Y-96400000D01*
X158054671Y-94754671D02*
X159000000Y-95700000D01*
X182300000Y-96400000D02*
X183059999Y-95640001D01*
X183059999Y-95640001D02*
X183063483Y-95640001D01*
X183063483Y-95640001D02*
X185559045Y-93144438D01*
D24*
X169100000Y-97925000D02*
X169100000Y-101400000D01*
X186200000Y-94000000D02*
X185600000Y-94000000D01*
X185600000Y-94000000D02*
X182650000Y-96950000D01*
X167849999Y-114800009D02*
X168399991Y-115350001D01*
X168399991Y-115350001D02*
X168749990Y-115700000D01*
X167849999Y-102650001D02*
X167849999Y-114800009D01*
X169100000Y-101400000D02*
X167849999Y-102650001D01*
X170075000Y-96950000D02*
X169100000Y-97925000D01*
X182650000Y-96950000D02*
X170075000Y-96950000D01*
X216550000Y-95850000D02*
X216550000Y-97200000D01*
X216550000Y-97200000D02*
X216700000Y-97350000D01*
X216850000Y-97200000D02*
X216700000Y-97350000D01*
X216850000Y-95850000D02*
X216850000Y-97200000D01*
X216700000Y-97350000D02*
X216700000Y-96600000D01*
D25*
X211900000Y-96850000D02*
X211944974Y-96850000D01*
X211950000Y-96855026D02*
X211950004Y-96855026D01*
X211950000Y-96700000D02*
X211950000Y-96855026D01*
X211750000Y-95850000D02*
X211750000Y-97149996D01*
X211750000Y-97149996D02*
X212000000Y-97399996D01*
X212050000Y-97349996D02*
X212000000Y-97399996D01*
X212000000Y-96905022D02*
X212000000Y-97399996D01*
X211950004Y-96855026D02*
X212000000Y-96905022D01*
X212050000Y-95850000D02*
X212050000Y-97349996D01*
X211900000Y-96650000D02*
X211950000Y-96700000D01*
X211944974Y-96850000D02*
X211950000Y-96855026D01*
D24*
X202700000Y-97100000D02*
X202700000Y-98100000D01*
X202100000Y-96500000D02*
X202700000Y-97100000D01*
X201100000Y-96500000D02*
X202100000Y-96500000D01*
X196200000Y-97700000D02*
X196850153Y-97049847D01*
X196850153Y-97049847D02*
X197549847Y-97049847D01*
X197549847Y-97049847D02*
X197900000Y-97400000D01*
X196000000Y-97700000D02*
X196200000Y-97700000D01*
X197900000Y-97400000D02*
X200200000Y-97400000D01*
X200200000Y-97400000D02*
X201100000Y-96500000D01*
X195200000Y-91900000D02*
X190700000Y-91900000D01*
X198400000Y-96700000D02*
X198400000Y-95100000D01*
X198400000Y-95100000D02*
X195200000Y-91900000D01*
X202600000Y-99100000D02*
X201900000Y-98400000D01*
X201900000Y-98400000D02*
X201400000Y-98400000D01*
X200800000Y-97800000D02*
X197200000Y-97800000D01*
X201400000Y-98400000D02*
X200800000Y-97800000D01*
D26*
X182980000Y-93300000D02*
X182040000Y-94240000D01*
X183200000Y-93300000D02*
X182980000Y-93300000D01*
D21*
X174420000Y-94590000D02*
X174420000Y-94240000D01*
X182040000Y-94669970D02*
X182050000Y-94679970D01*
X182040000Y-94240000D02*
X182040000Y-94669970D01*
X182050000Y-94679970D02*
X182050000Y-95300000D01*
X182050000Y-95300000D02*
X181650000Y-95700000D01*
X181650000Y-95700000D02*
X175530000Y-95700000D01*
X175530000Y-95700000D02*
X174420000Y-94590000D01*
X176960000Y-94240000D02*
X178240000Y-94240000D01*
X178240000Y-94240000D02*
X178250000Y-94250000D01*
D24*
X180159968Y-94899968D02*
X180700000Y-94899968D01*
X179500000Y-94240000D02*
X180159968Y-94899968D01*
X174575000Y-112325000D02*
X175000000Y-111900000D01*
X174100000Y-112800000D02*
X174100000Y-112900000D01*
X174575000Y-112325000D02*
X174100000Y-112800000D01*
X175000000Y-104850000D02*
X175600000Y-104250000D01*
X175000000Y-108300000D02*
X175000000Y-104850000D01*
X175000000Y-111900000D02*
X175000000Y-108300000D01*
X180400000Y-100100000D02*
X180400000Y-99700000D01*
X175600000Y-104250000D02*
X176250000Y-104250000D01*
X176250000Y-104250000D02*
X180400000Y-100100000D01*
X180850000Y-118650000D02*
X182040000Y-118650000D01*
X180800000Y-118700000D02*
X180850000Y-118650000D01*
D21*
X162750000Y-107100000D02*
X160900000Y-105250000D01*
X160900000Y-98800000D02*
X158800000Y-96700000D01*
X160900000Y-105250000D02*
X160900000Y-98800000D01*
D24*
X187400000Y-106700000D02*
X188700000Y-106700000D01*
X188700000Y-106700000D02*
X188800000Y-106800000D01*
X179500000Y-118100000D02*
X179500000Y-118650000D01*
X170100000Y-113800000D02*
X172100000Y-115800000D01*
X170100000Y-113200000D02*
X170100000Y-113800000D01*
X173752513Y-115800000D02*
X174452513Y-115100000D01*
X174452513Y-115100000D02*
X176500000Y-115100000D01*
X172100000Y-115800000D02*
X173752513Y-115800000D01*
X176500000Y-115100000D02*
X179500000Y-118100000D01*
X180100000Y-115250000D02*
X181200000Y-114150000D01*
X181200000Y-114150000D02*
X181200000Y-103200000D01*
X183360000Y-101040000D02*
X187120000Y-101040000D01*
X181200000Y-103200000D02*
X183360000Y-101040000D01*
X218200000Y-100000000D02*
X218200000Y-99000000D01*
X217600000Y-100600000D02*
X218200000Y-100000000D01*
X210350000Y-100600000D02*
X217600000Y-100600000D01*
X208400000Y-102550000D02*
X210350000Y-100600000D01*
X204950000Y-106800000D02*
X208400000Y-103350000D01*
X184700000Y-107000000D02*
X186150000Y-107000000D01*
X184000000Y-107700000D02*
X184700000Y-107000000D01*
X186150000Y-107000000D02*
X187325000Y-105825000D01*
X208400000Y-103350000D02*
X208400000Y-102550000D01*
X187325000Y-105825000D02*
X192625000Y-105825000D01*
X192625000Y-105825000D02*
X193600000Y-106800000D01*
X193600000Y-106800000D02*
X204950000Y-106800000D01*
X217850001Y-110649987D02*
X218200000Y-110999986D01*
X217100014Y-109900000D02*
X217850001Y-110649987D01*
X213600000Y-110300000D02*
X214000000Y-109900000D01*
X188749986Y-109450000D02*
X204400000Y-109450000D01*
X185599996Y-112599990D02*
X188749986Y-109450000D01*
X204400000Y-109450000D02*
X206500000Y-107350000D01*
X214000000Y-109900000D02*
X217100014Y-109900000D01*
X206500000Y-107350000D02*
X208250000Y-107350000D01*
X208250000Y-107350000D02*
X211200000Y-110300000D01*
X211200000Y-110300000D02*
X213600000Y-110300000D01*
X219100000Y-96800000D02*
X220015000Y-96800000D01*
X215550000Y-96850000D02*
X216000000Y-97300000D01*
X215550000Y-95850000D02*
X215550000Y-96850000D01*
X216000000Y-97300000D02*
X216000000Y-97700000D01*
X216000000Y-97700000D02*
X216300000Y-98000000D01*
X216300000Y-98000000D02*
X217900000Y-98000000D01*
X217900000Y-98000000D02*
X219100000Y-96800000D01*
D25*
X211500000Y-98300000D02*
X211050000Y-98300000D01*
X212100000Y-98300000D02*
X211500000Y-98300000D01*
X212775000Y-97625000D02*
X212100000Y-98300000D01*
X212775000Y-97075000D02*
X212775000Y-97625000D01*
X212550000Y-95850000D02*
X212550000Y-96850000D01*
X212550000Y-96850000D02*
X212775000Y-97075000D01*
X214550000Y-96975000D02*
X214550000Y-95850000D01*
X214325000Y-97200000D02*
X214550000Y-96975000D01*
X213775000Y-97200000D02*
X214325000Y-97200000D01*
X213550000Y-95850000D02*
X213550000Y-96975000D01*
X213550000Y-96975000D02*
X213775000Y-97200000D01*
D24*
X214449999Y-97050011D02*
X214100000Y-97400010D01*
X214550000Y-96950010D02*
X214449999Y-97050011D01*
X214550000Y-95850000D02*
X214550000Y-96950010D01*
D25*
X214050000Y-94725000D02*
X214275000Y-94500000D01*
X214050000Y-95850000D02*
X214050000Y-94725000D01*
X214275000Y-94500000D02*
X214850000Y-94500000D01*
X215050000Y-94700000D02*
X215050000Y-95850000D01*
X214850000Y-94500000D02*
X215050000Y-94700000D01*
D24*
X215050000Y-94700000D02*
X215050000Y-94650000D01*
X215050000Y-94650000D02*
X214800000Y-94400000D01*
X183200000Y-116450000D02*
X183200000Y-118000000D01*
X189400000Y-110250000D02*
X183200000Y-116450000D01*
X207700000Y-108500000D02*
X205950000Y-110250000D01*
X205950000Y-110250000D02*
X189400000Y-110250000D01*
D25*
X183200000Y-119700000D02*
X183200000Y-118800000D01*
X172200000Y-120050000D02*
X182850000Y-120050000D01*
X183200000Y-118800000D02*
X183200000Y-118000000D01*
X173350000Y-102900000D02*
X173350000Y-102950000D01*
X169000000Y-107300000D02*
X169000000Y-113750000D01*
X182850000Y-120050000D02*
X183200000Y-119700000D01*
X173350000Y-102950000D02*
X169000000Y-107300000D01*
X169000000Y-113750000D02*
X170550000Y-115300000D01*
X170550000Y-115300000D02*
X170550000Y-118400000D01*
X170550000Y-118400000D02*
X172200000Y-120050000D01*
D24*
X205050000Y-109850000D02*
X206900000Y-108000000D01*
X189250000Y-109850000D02*
X205050000Y-109850000D01*
X183750001Y-115349999D02*
X189250000Y-109850000D01*
X182200000Y-115000000D02*
X182549999Y-115349999D01*
X182549999Y-115349999D02*
X183750001Y-115349999D01*
D21*
X171400000Y-97900000D02*
X171000000Y-98300000D01*
X178039998Y-99350000D02*
X176589998Y-97900000D01*
X188450000Y-98200000D02*
X179900000Y-98200000D01*
X189400000Y-99150000D02*
X188450000Y-98200000D01*
X178750000Y-99350000D02*
X178039998Y-99350000D01*
X192750000Y-100500000D02*
X191400000Y-99150000D01*
X208100000Y-93700000D02*
X208100000Y-100750000D01*
X191400000Y-99150000D02*
X189400000Y-99150000D01*
X206500000Y-92100000D02*
X208100000Y-93700000D01*
X208100000Y-100750000D02*
X205450000Y-103400000D01*
X176589998Y-97900000D02*
X171400000Y-97900000D01*
X179900000Y-98200000D02*
X178750000Y-99350000D01*
X205450000Y-103400000D02*
X202700000Y-103400000D01*
X202700000Y-103400000D02*
X199800000Y-100500000D01*
X199800000Y-100500000D02*
X192750000Y-100500000D01*
D24*
X170650000Y-107494974D02*
X172400000Y-109244974D01*
X170650000Y-107000000D02*
X170650000Y-107494974D01*
X172400000Y-109244974D02*
X172400000Y-113400000D01*
X173150000Y-114150000D02*
X176250000Y-114150000D01*
X172400000Y-113400000D02*
X173150000Y-114150000D01*
X176250000Y-114150000D02*
X178450000Y-116350000D01*
X181855026Y-116100000D02*
X182350000Y-116100000D01*
X181605026Y-116350000D02*
X181855026Y-116100000D01*
X180200000Y-116350000D02*
X181605026Y-116350000D01*
X178450000Y-116350000D02*
X180200000Y-116350000D01*
X186349999Y-108049999D02*
X186000000Y-107700000D01*
X211099988Y-109599988D02*
X208450000Y-106950000D01*
X212199988Y-109599988D02*
X211099988Y-109599988D01*
X203900000Y-109050000D02*
X187350000Y-109050000D01*
X208450000Y-106950000D02*
X206000000Y-106950000D01*
X206000000Y-106950000D02*
X203900000Y-109050000D01*
X187350000Y-109050000D02*
X186349999Y-108049999D01*
X174300000Y-99594974D02*
X174300000Y-99100000D01*
X174300000Y-103600000D02*
X174300000Y-99594974D01*
X173100000Y-113350000D02*
X173100000Y-104800000D01*
X173100000Y-104800000D02*
X174300000Y-103600000D01*
X173400000Y-113650000D02*
X173100000Y-113350000D01*
X176400000Y-113650000D02*
X173400000Y-113650000D01*
X178650000Y-115900000D02*
X176400000Y-113650000D01*
X185200000Y-107700000D02*
X184750000Y-108150000D01*
X186000000Y-107700000D02*
X185200000Y-107700000D01*
X184750000Y-108150000D02*
X184750000Y-113700000D01*
X184750000Y-113700000D02*
X184100000Y-114350000D01*
X184100000Y-114350000D02*
X181950000Y-114350000D01*
X180400000Y-115900000D02*
X178650000Y-115900000D01*
X181950000Y-114350000D02*
X180400000Y-115900000D01*
X179155447Y-92244553D02*
X188793097Y-92244553D01*
X178950000Y-92450000D02*
X179155447Y-92244553D01*
X176850000Y-92450000D02*
X178950000Y-92450000D01*
X163050000Y-92900000D02*
X165450000Y-95300000D01*
X160200000Y-92900000D02*
X163050000Y-92900000D01*
X165450000Y-95300000D02*
X169400000Y-95300000D01*
X169400000Y-95300000D02*
X173400000Y-91300000D01*
X188793097Y-92244553D02*
X189124272Y-92575728D01*
X173400000Y-91300000D02*
X175700000Y-91300000D01*
X175700000Y-91300000D02*
X176850000Y-92450000D01*
X173600000Y-91700000D02*
X175600000Y-91700000D01*
X193650001Y-97600001D02*
X194000000Y-97950000D01*
X169600000Y-95700000D02*
X173600000Y-91700000D01*
X176750000Y-92850000D02*
X179150000Y-92850000D01*
X187800000Y-92600000D02*
X188500000Y-93300000D01*
X179400000Y-92600000D02*
X187800000Y-92600000D01*
X179150000Y-92850000D02*
X179400000Y-92600000D01*
X189350000Y-93300000D02*
X193650001Y-97600001D01*
X188500000Y-93300000D02*
X189350000Y-93300000D01*
X175600000Y-91700000D02*
X176750000Y-92850000D01*
X164900000Y-95700000D02*
X165250000Y-95700000D01*
X164500000Y-95300000D02*
X164900000Y-95700000D01*
X165250000Y-95700000D02*
X169600000Y-95700000D01*
X159800000Y-92100000D02*
X159000000Y-92900000D01*
X162850000Y-92100000D02*
X159800000Y-92100000D01*
X179400000Y-91800000D02*
X178500000Y-90900000D01*
X189700000Y-91800000D02*
X179400000Y-91800000D01*
X178500000Y-90900000D02*
X173200000Y-90900000D01*
X173200000Y-90900000D02*
X169200000Y-94900000D01*
X169200000Y-94900000D02*
X165650000Y-94900000D01*
X165650000Y-94900000D02*
X162850000Y-92100000D01*
X155000000Y-91800000D02*
X156700000Y-90100000D01*
X186800000Y-90300000D02*
X193405026Y-90300000D01*
X156700000Y-90100000D02*
X178900000Y-90100000D01*
X186100000Y-91000000D02*
X186800000Y-90300000D01*
X178900000Y-90100000D02*
X179800000Y-91000000D01*
X179800000Y-91000000D02*
X186100000Y-91000000D01*
X193405026Y-90300000D02*
X193900000Y-90300000D01*
X186800000Y-90900000D02*
X192655026Y-90900000D01*
X192655026Y-90900000D02*
X193150000Y-90900000D01*
X173000000Y-90500000D02*
X178700000Y-90500000D01*
X178700000Y-90500000D02*
X179600000Y-91400000D01*
X169250000Y-94250000D02*
X173000000Y-90500000D01*
X179600000Y-91400000D02*
X186300000Y-91400000D01*
X165900000Y-94250000D02*
X169250000Y-94250000D01*
X186300000Y-91400000D02*
X186800000Y-90900000D01*
X167500001Y-99499995D02*
X167850000Y-99149996D01*
X167200016Y-99799980D02*
X167500001Y-99499995D01*
X167200016Y-114200016D02*
X167200016Y-99799980D01*
X167200000Y-114200032D02*
X167200016Y-114200016D01*
X167200000Y-115150000D02*
X167200000Y-114200032D01*
X173600000Y-116850000D02*
X171500000Y-116850000D01*
X178250000Y-119200000D02*
X178250000Y-117650000D01*
X177650000Y-117050000D02*
X176150000Y-117050000D01*
X176150000Y-117050000D02*
X175250000Y-116150000D01*
X178250000Y-117650000D02*
X177650000Y-117050000D01*
X175250000Y-116150000D02*
X174300000Y-116150000D01*
X174300000Y-116150000D02*
X173600000Y-116850000D01*
X201900000Y-93950000D02*
X201900000Y-94500000D01*
X204500000Y-91350000D02*
X201900000Y-93950000D01*
X183200000Y-107350000D02*
X184050000Y-106500000D01*
X208750000Y-93100000D02*
X207000000Y-91350000D01*
X207000000Y-91350000D02*
X204500000Y-91350000D01*
X208750000Y-100950000D02*
X208750000Y-93100000D01*
X202350000Y-104000000D02*
X205700000Y-104000000D01*
X184300000Y-112505026D02*
X184300000Y-110500000D01*
X184300000Y-110500000D02*
X183200000Y-109400000D01*
X184050000Y-113250000D02*
X184050000Y-112755026D01*
X184050000Y-112755026D02*
X184300000Y-112505026D01*
X184050000Y-106500000D02*
X186100000Y-106500000D01*
X186100000Y-106500000D02*
X189850000Y-102750000D01*
X199650000Y-101300000D02*
X202350000Y-104000000D01*
X189850000Y-102750000D02*
X190250000Y-102750000D01*
X183200000Y-109400000D02*
X183200000Y-107350000D01*
X190250000Y-102750000D02*
X191700000Y-101300000D01*
X191700000Y-101300000D02*
X199650000Y-101300000D01*
X205700000Y-104000000D02*
X208750000Y-100950000D01*
X182500000Y-111200000D02*
X183200000Y-111900000D01*
X182500000Y-107200000D02*
X182500000Y-111200000D01*
X186200000Y-104600000D02*
X185100000Y-104600000D01*
X185100000Y-104600000D02*
X182500000Y-107200000D01*
X188400000Y-100200000D02*
X188400000Y-99800000D01*
X181850000Y-111970281D02*
X183129709Y-113249990D01*
X181850000Y-107250000D02*
X181850000Y-111970281D01*
X185750000Y-103350000D02*
X181850000Y-107250000D01*
X187450000Y-103350000D02*
X185750000Y-103350000D01*
X188400000Y-100200000D02*
X188400000Y-102400000D01*
X188400000Y-102400000D02*
X187450000Y-103350000D01*
X204950000Y-99000000D02*
X204500000Y-99000000D01*
X206250000Y-100300000D02*
X204950000Y-99000000D01*
X206250000Y-101794001D02*
X206250000Y-100300000D01*
X205194001Y-102850000D02*
X206250000Y-101794001D01*
X203200000Y-102850000D02*
X205194001Y-102850000D01*
X200250000Y-99900000D02*
X203200000Y-102850000D01*
X191550000Y-98300000D02*
X193150000Y-99900000D01*
X176700000Y-100300000D02*
X176200000Y-99800000D01*
X170700000Y-99200000D02*
X170200000Y-98700000D01*
X188750000Y-97350000D02*
X189700000Y-98300000D01*
X178700000Y-100300000D02*
X176700000Y-100300000D01*
X189700000Y-98300000D02*
X191550000Y-98300000D01*
X188400000Y-100200000D02*
X188400000Y-99600000D01*
X180100000Y-98900000D02*
X178700000Y-100300000D01*
X187700000Y-98900000D02*
X180100000Y-98900000D01*
X176200000Y-99800000D02*
X176200000Y-99000000D01*
X193150000Y-99900000D02*
X200250000Y-99900000D01*
X188400000Y-99600000D02*
X187700000Y-98900000D01*
X172650000Y-98450000D02*
X171900000Y-99200000D01*
X176200000Y-99000000D02*
X175650000Y-98450000D01*
X175650000Y-98450000D02*
X172650000Y-98450000D01*
X171900000Y-99200000D02*
X170700000Y-99200000D01*
X170200000Y-98700000D02*
X170200000Y-97900000D01*
X170200000Y-97900000D02*
X170750000Y-97350000D01*
X170750000Y-97350000D02*
X188750000Y-97350000D01*
M02*
