G04 #@! TF.GenerationSoftware,KiCad,Pcbnew,8.0.1*
G04 #@! TF.CreationDate,2024-04-28T03:10:51-05:00*
G04 #@! TF.ProjectId,mini_ble,6d696e69-5f62-46c6-952e-6b696361645f,rev?*
G04 #@! TF.SameCoordinates,Original*
G04 #@! TF.FileFunction,Soldermask,Top*
G04 #@! TF.FilePolarity,Negative*
%FSLAX46Y46*%
G04 Gerber Fmt 4.6, Leading zero omitted, Abs format (unit mm)*
G04 Created by KiCad (PCBNEW 8.0.1) date 2024-04-28 03:10:51*
%MOMM*%
%LPD*%
G01*
G04 APERTURE LIST*
G04 APERTURE END LIST*
G36*
X151343680Y-117742840D02*
G01*
X151562374Y-117817917D01*
X151765727Y-117927967D01*
X151948194Y-118069987D01*
X152104797Y-118240102D01*
X152231263Y-118433674D01*
X152324144Y-118645421D01*
X152380906Y-118869568D01*
X152400000Y-119100000D01*
X152380906Y-119330432D01*
X152324144Y-119554579D01*
X152231263Y-119766326D01*
X152104797Y-119959898D01*
X151948194Y-120130013D01*
X151765727Y-120272033D01*
X151562374Y-120382083D01*
X151343680Y-120457160D01*
X151115611Y-120495218D01*
X150884389Y-120495218D01*
X150656320Y-120457160D01*
X150437626Y-120382083D01*
X150234273Y-120272033D01*
X150051806Y-120130013D01*
X149895203Y-119959898D01*
X149768737Y-119766326D01*
X149675856Y-119554579D01*
X149619094Y-119330432D01*
X149600000Y-119100000D01*
X149619094Y-118869568D01*
X149675856Y-118645421D01*
X149768737Y-118433674D01*
X149895203Y-118240102D01*
X150051806Y-118069987D01*
X150234273Y-117927967D01*
X150437626Y-117817917D01*
X150656320Y-117742840D01*
X150884389Y-117704782D01*
X151115611Y-117704782D01*
X151343680Y-117742840D01*
G37*
G36*
X175108268Y-117557612D02*
G01*
X175140711Y-117579289D01*
X175162388Y-117611732D01*
X175170000Y-117650000D01*
X175170000Y-119650000D01*
X175162388Y-119688268D01*
X175140711Y-119720711D01*
X175108268Y-119742388D01*
X175070000Y-119750000D01*
X173770000Y-119750000D01*
X173731732Y-119742388D01*
X173699289Y-119720711D01*
X173677612Y-119688268D01*
X173670000Y-119650000D01*
X173670000Y-117650000D01*
X173677612Y-117611732D01*
X173699289Y-117579289D01*
X173731732Y-117557612D01*
X173770000Y-117550000D01*
X175070000Y-117550000D01*
X175108268Y-117557612D01*
G37*
G36*
X177648268Y-117557612D02*
G01*
X177680711Y-117579289D01*
X177702388Y-117611732D01*
X177710000Y-117650000D01*
X177710000Y-119650000D01*
X177702388Y-119688268D01*
X177680711Y-119720711D01*
X177648268Y-119742388D01*
X177610000Y-119750000D01*
X176310000Y-119750000D01*
X176271732Y-119742388D01*
X176239289Y-119720711D01*
X176217612Y-119688268D01*
X176210000Y-119650000D01*
X176210000Y-117650000D01*
X176217612Y-117611732D01*
X176239289Y-117579289D01*
X176271732Y-117557612D01*
X176310000Y-117550000D01*
X177610000Y-117550000D01*
X177648268Y-117557612D01*
G37*
G36*
X180188268Y-117557612D02*
G01*
X180220711Y-117579289D01*
X180242388Y-117611732D01*
X180250000Y-117650000D01*
X180250000Y-119650000D01*
X180242388Y-119688268D01*
X180220711Y-119720711D01*
X180188268Y-119742388D01*
X180150000Y-119750000D01*
X178850000Y-119750000D01*
X178811732Y-119742388D01*
X178779289Y-119720711D01*
X178757612Y-119688268D01*
X178750000Y-119650000D01*
X178750000Y-117650000D01*
X178757612Y-117611732D01*
X178779289Y-117579289D01*
X178811732Y-117557612D01*
X178850000Y-117550000D01*
X180150000Y-117550000D01*
X180188268Y-117557612D01*
G37*
G36*
X182728268Y-117557612D02*
G01*
X182760711Y-117579289D01*
X182782388Y-117611732D01*
X182790000Y-117650000D01*
X182790000Y-119650000D01*
X182782388Y-119688268D01*
X182760711Y-119720711D01*
X182728268Y-119742388D01*
X182690000Y-119750000D01*
X181390000Y-119750000D01*
X181351732Y-119742388D01*
X181319289Y-119720711D01*
X181297612Y-119688268D01*
X181290000Y-119650000D01*
X181290000Y-117650000D01*
X181297612Y-117611732D01*
X181319289Y-117579289D01*
X181351732Y-117557612D01*
X181390000Y-117550000D01*
X182690000Y-117550000D01*
X182728268Y-117557612D01*
G37*
G36*
X218843680Y-115042840D02*
G01*
X219062374Y-115117917D01*
X219265727Y-115227967D01*
X219448194Y-115369987D01*
X219604797Y-115540102D01*
X219731263Y-115733674D01*
X219824144Y-115945421D01*
X219880906Y-116169568D01*
X219900000Y-116400000D01*
X219880906Y-116630432D01*
X219824144Y-116854579D01*
X219731263Y-117066326D01*
X219604797Y-117259898D01*
X219448194Y-117430013D01*
X219265727Y-117572033D01*
X219062374Y-117682083D01*
X218843680Y-117757160D01*
X218615611Y-117795218D01*
X218384389Y-117795218D01*
X218156320Y-117757160D01*
X217937626Y-117682083D01*
X217734273Y-117572033D01*
X217551806Y-117430013D01*
X217395203Y-117259898D01*
X217268737Y-117066326D01*
X217175856Y-116854579D01*
X217119094Y-116630432D01*
X217100000Y-116400000D01*
X217119094Y-116169568D01*
X217175856Y-115945421D01*
X217268737Y-115733674D01*
X217395203Y-115540102D01*
X217551806Y-115369987D01*
X217734273Y-115227967D01*
X217937626Y-115117917D01*
X218156320Y-115042840D01*
X218384389Y-115004782D01*
X218615611Y-115004782D01*
X218843680Y-115042840D01*
G37*
G36*
X160701029Y-115591992D02*
G01*
X160890312Y-115665320D01*
X161062898Y-115772181D01*
X161212910Y-115908935D01*
X161335239Y-116070925D01*
X161425719Y-116252634D01*
X161481270Y-116447876D01*
X161500000Y-116650000D01*
X161481270Y-116852124D01*
X161425719Y-117047366D01*
X161335239Y-117229075D01*
X161212910Y-117391065D01*
X161062898Y-117527819D01*
X160890312Y-117634680D01*
X160701029Y-117708008D01*
X160501495Y-117745308D01*
X160298505Y-117745308D01*
X160098971Y-117708008D01*
X159909688Y-117634680D01*
X159737102Y-117527819D01*
X159587090Y-117391065D01*
X159464761Y-117229075D01*
X159374281Y-117047366D01*
X159318730Y-116852124D01*
X159300000Y-116650000D01*
X159318730Y-116447876D01*
X159374281Y-116252634D01*
X159464761Y-116070925D01*
X159587090Y-115908935D01*
X159737102Y-115772181D01*
X159909688Y-115665320D01*
X160098971Y-115591992D01*
X160298505Y-115554692D01*
X160501495Y-115554692D01*
X160701029Y-115591992D01*
G37*
G36*
X152838268Y-114007612D02*
G01*
X152870711Y-114029289D01*
X152892388Y-114061732D01*
X152900000Y-114100000D01*
X152900000Y-117100000D01*
X152892388Y-117138268D01*
X152870711Y-117170711D01*
X152838268Y-117192388D01*
X152800000Y-117200000D01*
X148800000Y-117200000D01*
X148761732Y-117192388D01*
X148729289Y-117170711D01*
X148707612Y-117138268D01*
X148700000Y-117100000D01*
X148700000Y-114100000D01*
X148707612Y-114061732D01*
X148729289Y-114029289D01*
X148761732Y-114007612D01*
X148800000Y-114000000D01*
X152800000Y-114000000D01*
X152838268Y-114007612D01*
G37*
G36*
X216963268Y-110307612D02*
G01*
X216995711Y-110329289D01*
X217017388Y-110361732D01*
X217025000Y-110400000D01*
X217025000Y-111800000D01*
X217017388Y-111838268D01*
X216995711Y-111870711D01*
X216963268Y-111892388D01*
X216925000Y-111900000D01*
X215225000Y-111900000D01*
X215186732Y-111892388D01*
X215154289Y-111870711D01*
X215132612Y-111838268D01*
X215125000Y-111800000D01*
X215125000Y-110400000D01*
X215132612Y-110361732D01*
X215154289Y-110329289D01*
X215186732Y-110307612D01*
X215225000Y-110300000D01*
X216925000Y-110300000D01*
X216963268Y-110307612D01*
G37*
G36*
X221488268Y-110307612D02*
G01*
X221520711Y-110329289D01*
X221542388Y-110361732D01*
X221550000Y-110400000D01*
X221550000Y-111800000D01*
X221542388Y-111838268D01*
X221520711Y-111870711D01*
X221488268Y-111892388D01*
X221450000Y-111900000D01*
X219400000Y-111900000D01*
X219361732Y-111892388D01*
X219329289Y-111870711D01*
X219307612Y-111838268D01*
X219300000Y-111800000D01*
X219300000Y-110400000D01*
X219307612Y-110361732D01*
X219329289Y-110329289D01*
X219361732Y-110307612D01*
X219400000Y-110300000D01*
X221450000Y-110300000D01*
X221488268Y-110307612D01*
G37*
G36*
X187808268Y-99947612D02*
G01*
X187840711Y-99969289D01*
X187862388Y-100001732D01*
X187870000Y-100040000D01*
X187870000Y-102040000D01*
X187862388Y-102078268D01*
X187840711Y-102110711D01*
X187808268Y-102132388D01*
X187770000Y-102140000D01*
X186470000Y-102140000D01*
X186431732Y-102132388D01*
X186399289Y-102110711D01*
X186377612Y-102078268D01*
X186370000Y-102040000D01*
X186370000Y-100040000D01*
X186377612Y-100001732D01*
X186399289Y-99969289D01*
X186431732Y-99947612D01*
X186470000Y-99940000D01*
X187770000Y-99940000D01*
X187808268Y-99947612D01*
G37*
G36*
X190348268Y-99947612D02*
G01*
X190380711Y-99969289D01*
X190402388Y-100001732D01*
X190410000Y-100040000D01*
X190410000Y-102040000D01*
X190402388Y-102078268D01*
X190380711Y-102110711D01*
X190348268Y-102132388D01*
X190310000Y-102140000D01*
X189010000Y-102140000D01*
X188971732Y-102132388D01*
X188939289Y-102110711D01*
X188917612Y-102078268D01*
X188910000Y-102040000D01*
X188910000Y-100040000D01*
X188917612Y-100001732D01*
X188939289Y-99969289D01*
X188971732Y-99947612D01*
X189010000Y-99940000D01*
X190310000Y-99940000D01*
X190348268Y-99947612D01*
G37*
G36*
X216963268Y-98307612D02*
G01*
X216995711Y-98329289D01*
X217017388Y-98361732D01*
X217025000Y-98400000D01*
X217025000Y-99800000D01*
X217017388Y-99838268D01*
X216995711Y-99870711D01*
X216963268Y-99892388D01*
X216925000Y-99900000D01*
X215225000Y-99900000D01*
X215186732Y-99892388D01*
X215154289Y-99870711D01*
X215132612Y-99838268D01*
X215125000Y-99800000D01*
X215125000Y-98400000D01*
X215132612Y-98361732D01*
X215154289Y-98329289D01*
X215186732Y-98307612D01*
X215225000Y-98300000D01*
X216925000Y-98300000D01*
X216963268Y-98307612D01*
G37*
G36*
X221488268Y-98307612D02*
G01*
X221520711Y-98329289D01*
X221542388Y-98361732D01*
X221550000Y-98400000D01*
X221550000Y-99800000D01*
X221542388Y-99838268D01*
X221520711Y-99870711D01*
X221488268Y-99892388D01*
X221450000Y-99900000D01*
X219400000Y-99900000D01*
X219361732Y-99892388D01*
X219329289Y-99870711D01*
X219307612Y-99838268D01*
X219300000Y-99800000D01*
X219300000Y-98400000D01*
X219307612Y-98361732D01*
X219329289Y-98329289D01*
X219361732Y-98307612D01*
X219400000Y-98300000D01*
X221450000Y-98300000D01*
X221488268Y-98307612D01*
G37*
G36*
X210266546Y-97880804D02*
G01*
X210317336Y-97886697D01*
X210334690Y-97894359D01*
X210357214Y-97898840D01*
X210381326Y-97914951D01*
X210401881Y-97924027D01*
X210415919Y-97938065D01*
X210437509Y-97952491D01*
X210451934Y-97974080D01*
X210465972Y-97988118D01*
X210475046Y-98008670D01*
X210491160Y-98032786D01*
X210495640Y-98055311D01*
X210503302Y-98072663D01*
X210509192Y-98123442D01*
X210510000Y-98127500D01*
X210510000Y-98472500D01*
X210509192Y-98476558D01*
X210503302Y-98527336D01*
X210495641Y-98544686D01*
X210491160Y-98567214D01*
X210475045Y-98591331D01*
X210465972Y-98611881D01*
X210451936Y-98625916D01*
X210437509Y-98647509D01*
X210415916Y-98661936D01*
X210401881Y-98675972D01*
X210381331Y-98685045D01*
X210357214Y-98701160D01*
X210334686Y-98705641D01*
X210317336Y-98713302D01*
X210266558Y-98719192D01*
X210262500Y-98720000D01*
X209967500Y-98720000D01*
X209963442Y-98719192D01*
X209912663Y-98713302D01*
X209895311Y-98705640D01*
X209872786Y-98701160D01*
X209848670Y-98685046D01*
X209828118Y-98675972D01*
X209814080Y-98661934D01*
X209792491Y-98647509D01*
X209778065Y-98625919D01*
X209764027Y-98611881D01*
X209754951Y-98591326D01*
X209738840Y-98567214D01*
X209734359Y-98544690D01*
X209726697Y-98527336D01*
X209720804Y-98476546D01*
X209720000Y-98472500D01*
X209720000Y-98127500D01*
X209720804Y-98123454D01*
X209726697Y-98072663D01*
X209734360Y-98055307D01*
X209738840Y-98032786D01*
X209754950Y-98008675D01*
X209764027Y-97988118D01*
X209778067Y-97974077D01*
X209792491Y-97952491D01*
X209814077Y-97938067D01*
X209828118Y-97924027D01*
X209848675Y-97914950D01*
X209872786Y-97898840D01*
X209895307Y-97894360D01*
X209912663Y-97886697D01*
X209963454Y-97880804D01*
X209967500Y-97880000D01*
X210262500Y-97880000D01*
X210266546Y-97880804D01*
G37*
G36*
X211236546Y-97880804D02*
G01*
X211287336Y-97886697D01*
X211304690Y-97894359D01*
X211327214Y-97898840D01*
X211351326Y-97914951D01*
X211371881Y-97924027D01*
X211385919Y-97938065D01*
X211407509Y-97952491D01*
X211421934Y-97974080D01*
X211435972Y-97988118D01*
X211445046Y-98008670D01*
X211461160Y-98032786D01*
X211465640Y-98055311D01*
X211473302Y-98072663D01*
X211479192Y-98123442D01*
X211480000Y-98127500D01*
X211480000Y-98472500D01*
X211479192Y-98476558D01*
X211473302Y-98527336D01*
X211465641Y-98544686D01*
X211461160Y-98567214D01*
X211445045Y-98591331D01*
X211435972Y-98611881D01*
X211421936Y-98625916D01*
X211407509Y-98647509D01*
X211385916Y-98661936D01*
X211371881Y-98675972D01*
X211351331Y-98685045D01*
X211327214Y-98701160D01*
X211304686Y-98705641D01*
X211287336Y-98713302D01*
X211236558Y-98719192D01*
X211232500Y-98720000D01*
X210937500Y-98720000D01*
X210933442Y-98719192D01*
X210882663Y-98713302D01*
X210865311Y-98705640D01*
X210842786Y-98701160D01*
X210818670Y-98685046D01*
X210798118Y-98675972D01*
X210784080Y-98661934D01*
X210762491Y-98647509D01*
X210748065Y-98625919D01*
X210734027Y-98611881D01*
X210724951Y-98591326D01*
X210708840Y-98567214D01*
X210704359Y-98544690D01*
X210696697Y-98527336D01*
X210690804Y-98476546D01*
X210690000Y-98472500D01*
X210690000Y-98127500D01*
X210690804Y-98123454D01*
X210696697Y-98072663D01*
X210704360Y-98055307D01*
X210708840Y-98032786D01*
X210724950Y-98008675D01*
X210734027Y-97988118D01*
X210748067Y-97974077D01*
X210762491Y-97952491D01*
X210784077Y-97938067D01*
X210798118Y-97924027D01*
X210818675Y-97914950D01*
X210842786Y-97898840D01*
X210865307Y-97894360D01*
X210882663Y-97886697D01*
X210933454Y-97880804D01*
X210937500Y-97880000D01*
X211232500Y-97880000D01*
X211236546Y-97880804D01*
G37*
G36*
X205201029Y-95271992D02*
G01*
X205390312Y-95345320D01*
X205562898Y-95452181D01*
X205712910Y-95588935D01*
X205835239Y-95750925D01*
X205925719Y-95932634D01*
X205981270Y-96127876D01*
X206000000Y-96330000D01*
X205981270Y-96532124D01*
X205925719Y-96727366D01*
X205835239Y-96909075D01*
X205712910Y-97071065D01*
X205562898Y-97207819D01*
X205390312Y-97314680D01*
X205201029Y-97388008D01*
X205001495Y-97425308D01*
X204798505Y-97425308D01*
X204598971Y-97388008D01*
X204409688Y-97314680D01*
X204237102Y-97207819D01*
X204087090Y-97071065D01*
X203964761Y-96909075D01*
X203874281Y-96727366D01*
X203818730Y-96532124D01*
X203800000Y-96330000D01*
X203818730Y-96127876D01*
X203874281Y-95932634D01*
X203964761Y-95750925D01*
X204087090Y-95588935D01*
X204237102Y-95452181D01*
X204409688Y-95345320D01*
X204598971Y-95271992D01*
X204798505Y-95234692D01*
X205001495Y-95234692D01*
X205201029Y-95271992D01*
G37*
G36*
X220166546Y-96380804D02*
G01*
X220217336Y-96386697D01*
X220234690Y-96394359D01*
X220257214Y-96398840D01*
X220281326Y-96414951D01*
X220301881Y-96424027D01*
X220315919Y-96438065D01*
X220337509Y-96452491D01*
X220351934Y-96474080D01*
X220365972Y-96488118D01*
X220375046Y-96508670D01*
X220391160Y-96532786D01*
X220395640Y-96555311D01*
X220403302Y-96572663D01*
X220409192Y-96623442D01*
X220410000Y-96627500D01*
X220410000Y-96972500D01*
X220409192Y-96976558D01*
X220403302Y-97027336D01*
X220395641Y-97044686D01*
X220391160Y-97067214D01*
X220375045Y-97091331D01*
X220365972Y-97111881D01*
X220351936Y-97125916D01*
X220337509Y-97147509D01*
X220315916Y-97161936D01*
X220301881Y-97175972D01*
X220281331Y-97185045D01*
X220257214Y-97201160D01*
X220234686Y-97205641D01*
X220217336Y-97213302D01*
X220166558Y-97219192D01*
X220162500Y-97220000D01*
X219867500Y-97220000D01*
X219863442Y-97219192D01*
X219812663Y-97213302D01*
X219795311Y-97205640D01*
X219772786Y-97201160D01*
X219748670Y-97185046D01*
X219728118Y-97175972D01*
X219714080Y-97161934D01*
X219692491Y-97147509D01*
X219678065Y-97125919D01*
X219664027Y-97111881D01*
X219654951Y-97091326D01*
X219638840Y-97067214D01*
X219634359Y-97044690D01*
X219626697Y-97027336D01*
X219620804Y-96976546D01*
X219620000Y-96972500D01*
X219620000Y-96627500D01*
X219620804Y-96623454D01*
X219626697Y-96572663D01*
X219634360Y-96555307D01*
X219638840Y-96532786D01*
X219654950Y-96508675D01*
X219664027Y-96488118D01*
X219678067Y-96474077D01*
X219692491Y-96452491D01*
X219714077Y-96438067D01*
X219728118Y-96424027D01*
X219748675Y-96414950D01*
X219772786Y-96398840D01*
X219795307Y-96394360D01*
X219812663Y-96386697D01*
X219863454Y-96380804D01*
X219867500Y-96380000D01*
X220162500Y-96380000D01*
X220166546Y-96380804D01*
G37*
G36*
X221136546Y-96380804D02*
G01*
X221187336Y-96386697D01*
X221204690Y-96394359D01*
X221227214Y-96398840D01*
X221251326Y-96414951D01*
X221271881Y-96424027D01*
X221285919Y-96438065D01*
X221307509Y-96452491D01*
X221321934Y-96474080D01*
X221335972Y-96488118D01*
X221345046Y-96508670D01*
X221361160Y-96532786D01*
X221365640Y-96555311D01*
X221373302Y-96572663D01*
X221379192Y-96623442D01*
X221380000Y-96627500D01*
X221380000Y-96972500D01*
X221379192Y-96976558D01*
X221373302Y-97027336D01*
X221365641Y-97044686D01*
X221361160Y-97067214D01*
X221345045Y-97091331D01*
X221335972Y-97111881D01*
X221321936Y-97125916D01*
X221307509Y-97147509D01*
X221285916Y-97161936D01*
X221271881Y-97175972D01*
X221251331Y-97185045D01*
X221227214Y-97201160D01*
X221204686Y-97205641D01*
X221187336Y-97213302D01*
X221136558Y-97219192D01*
X221132500Y-97220000D01*
X220837500Y-97220000D01*
X220833442Y-97219192D01*
X220782663Y-97213302D01*
X220765311Y-97205640D01*
X220742786Y-97201160D01*
X220718670Y-97185046D01*
X220698118Y-97175972D01*
X220684080Y-97161934D01*
X220662491Y-97147509D01*
X220648065Y-97125919D01*
X220634027Y-97111881D01*
X220624951Y-97091326D01*
X220608840Y-97067214D01*
X220604359Y-97044690D01*
X220596697Y-97027336D01*
X220590804Y-96976546D01*
X220590000Y-96972500D01*
X220590000Y-96627500D01*
X220590804Y-96623454D01*
X220596697Y-96572663D01*
X220604360Y-96555307D01*
X220608840Y-96532786D01*
X220624950Y-96508675D01*
X220634027Y-96488118D01*
X220648067Y-96474077D01*
X220662491Y-96452491D01*
X220684077Y-96438067D01*
X220698118Y-96424027D01*
X220718675Y-96414950D01*
X220742786Y-96398840D01*
X220765307Y-96394360D01*
X220782663Y-96386697D01*
X220833454Y-96380804D01*
X220837500Y-96380000D01*
X221132500Y-96380000D01*
X221136546Y-96380804D01*
G37*
G36*
X217220527Y-94089835D02*
G01*
X217250410Y-94089835D01*
X217285407Y-94100111D01*
X217321332Y-94105801D01*
X217343835Y-94117266D01*
X217366337Y-94123874D01*
X217402826Y-94147324D01*
X217439809Y-94166168D01*
X217453588Y-94179947D01*
X217467978Y-94189195D01*
X217501356Y-94227715D01*
X217533832Y-94260191D01*
X217540019Y-94272334D01*
X217547101Y-94280507D01*
X217572315Y-94335719D01*
X217594199Y-94378668D01*
X217595403Y-94386276D01*
X217597291Y-94390408D01*
X217609417Y-94474756D01*
X217615000Y-94510000D01*
X217609417Y-94545246D01*
X217597291Y-94629591D01*
X217595404Y-94633722D01*
X217594199Y-94641332D01*
X217572310Y-94684290D01*
X217547100Y-94739494D01*
X217540019Y-94747664D01*
X217533832Y-94759809D01*
X217501350Y-94792290D01*
X217480336Y-94816542D01*
X217507032Y-94875000D01*
X217800000Y-94875000D01*
X217838268Y-94882612D01*
X217870711Y-94904289D01*
X217892388Y-94936732D01*
X217900000Y-94975000D01*
X217900000Y-96725000D01*
X217892388Y-96763268D01*
X217870711Y-96795711D01*
X217838268Y-96817388D01*
X217800000Y-96825000D01*
X217500000Y-96825000D01*
X217200000Y-96825000D01*
X217161732Y-96817388D01*
X217129289Y-96795711D01*
X217127892Y-96793621D01*
X217115167Y-96785118D01*
X217084833Y-96785118D01*
X217072107Y-96793620D01*
X217070711Y-96795711D01*
X217038268Y-96817388D01*
X217000000Y-96825000D01*
X216700000Y-96825000D01*
X216400000Y-96825000D01*
X216361732Y-96817388D01*
X216329289Y-96795711D01*
X216327892Y-96793621D01*
X216315167Y-96785118D01*
X216284833Y-96785118D01*
X216272107Y-96793620D01*
X216270711Y-96795711D01*
X216238268Y-96817388D01*
X216200000Y-96825000D01*
X215900000Y-96825000D01*
X215861732Y-96817388D01*
X215829289Y-96795711D01*
X215827892Y-96793621D01*
X215815167Y-96785118D01*
X215784833Y-96785118D01*
X215772107Y-96793620D01*
X215770711Y-96795711D01*
X215738268Y-96817388D01*
X215700000Y-96825000D01*
X215400000Y-96825000D01*
X215361732Y-96817388D01*
X215329289Y-96795711D01*
X215327892Y-96793621D01*
X215315167Y-96785118D01*
X215284833Y-96785118D01*
X215272107Y-96793620D01*
X215270711Y-96795711D01*
X215238268Y-96817388D01*
X215200000Y-96825000D01*
X214900000Y-96825000D01*
X214861732Y-96817388D01*
X214829289Y-96795711D01*
X214827892Y-96793621D01*
X214815167Y-96785118D01*
X214784833Y-96785118D01*
X214772107Y-96793620D01*
X214770711Y-96795711D01*
X214738268Y-96817388D01*
X214700000Y-96825000D01*
X214400000Y-96825000D01*
X214361732Y-96817388D01*
X214329289Y-96795711D01*
X214327892Y-96793621D01*
X214315167Y-96785118D01*
X214284833Y-96785118D01*
X214272107Y-96793620D01*
X214270711Y-96795711D01*
X214238268Y-96817388D01*
X214200000Y-96825000D01*
X213900000Y-96825000D01*
X213861732Y-96817388D01*
X213829289Y-96795711D01*
X213827892Y-96793621D01*
X213815167Y-96785118D01*
X213784833Y-96785118D01*
X213772107Y-96793620D01*
X213770711Y-96795711D01*
X213738268Y-96817388D01*
X213700000Y-96825000D01*
X213400000Y-96825000D01*
X213361732Y-96817388D01*
X213329289Y-96795711D01*
X213327892Y-96793621D01*
X213315167Y-96785118D01*
X213284833Y-96785118D01*
X213272107Y-96793620D01*
X213270711Y-96795711D01*
X213238268Y-96817388D01*
X213200000Y-96825000D01*
X212900000Y-96825000D01*
X212861732Y-96817388D01*
X212829289Y-96795711D01*
X212827892Y-96793621D01*
X212815167Y-96785118D01*
X212784833Y-96785118D01*
X212772107Y-96793620D01*
X212770711Y-96795711D01*
X212738268Y-96817388D01*
X212700000Y-96825000D01*
X212400000Y-96825000D01*
X212361732Y-96817388D01*
X212329289Y-96795711D01*
X212327892Y-96793621D01*
X212315167Y-96785118D01*
X212284833Y-96785118D01*
X212272107Y-96793620D01*
X212270711Y-96795711D01*
X212238268Y-96817388D01*
X212200000Y-96825000D01*
X211900000Y-96825000D01*
X211600000Y-96825000D01*
X211561732Y-96817388D01*
X211529289Y-96795711D01*
X211527892Y-96793621D01*
X211515167Y-96785118D01*
X211484833Y-96785118D01*
X211472107Y-96793620D01*
X211470711Y-96795711D01*
X211438268Y-96817388D01*
X211400000Y-96825000D01*
X211100000Y-96825000D01*
X210800000Y-96825000D01*
X210761732Y-96817388D01*
X210729289Y-96795711D01*
X210707612Y-96763268D01*
X210700000Y-96725000D01*
X210700000Y-94975000D01*
X210707612Y-94936732D01*
X210729289Y-94904289D01*
X210761732Y-94882612D01*
X210800000Y-94875000D01*
X211092966Y-94875000D01*
X211119662Y-94816543D01*
X211098630Y-94792271D01*
X211066168Y-94759809D01*
X211059983Y-94747670D01*
X211052899Y-94739495D01*
X211027677Y-94684266D01*
X211005801Y-94641332D01*
X211004596Y-94633725D01*
X211002708Y-94629591D01*
X210990571Y-94545177D01*
X210985000Y-94510000D01*
X210990571Y-94474825D01*
X211002708Y-94390408D01*
X211004596Y-94386272D01*
X211005801Y-94378668D01*
X211027674Y-94335738D01*
X211052898Y-94280507D01*
X211059982Y-94272331D01*
X211066168Y-94260191D01*
X211098636Y-94227722D01*
X211132021Y-94189195D01*
X211146413Y-94179945D01*
X211160191Y-94166168D01*
X211197168Y-94147326D01*
X211233662Y-94123874D01*
X211256166Y-94117266D01*
X211278668Y-94105801D01*
X211314591Y-94100111D01*
X211349590Y-94089835D01*
X211379473Y-94089835D01*
X211410000Y-94085000D01*
X211440527Y-94089835D01*
X211470410Y-94089835D01*
X211505407Y-94100111D01*
X211541332Y-94105801D01*
X211563835Y-94117266D01*
X211586337Y-94123874D01*
X211622826Y-94147324D01*
X211659809Y-94166168D01*
X211673588Y-94179947D01*
X211687978Y-94189195D01*
X211721356Y-94227715D01*
X211753832Y-94260191D01*
X211760019Y-94272334D01*
X211767101Y-94280507D01*
X211792315Y-94335719D01*
X211814199Y-94378668D01*
X211815403Y-94386276D01*
X211817291Y-94390408D01*
X211829417Y-94474756D01*
X211835000Y-94510000D01*
X211829417Y-94545246D01*
X211817291Y-94629591D01*
X211815404Y-94633722D01*
X211814199Y-94641332D01*
X211792312Y-94684285D01*
X211767100Y-94739495D01*
X211760018Y-94747667D01*
X211753832Y-94759809D01*
X211721357Y-94792283D01*
X211700337Y-94816542D01*
X211727033Y-94875000D01*
X211900000Y-94875000D01*
X212200000Y-94875000D01*
X212238268Y-94882612D01*
X212270711Y-94904289D01*
X212272106Y-94906377D01*
X212284833Y-94914881D01*
X212315167Y-94914881D01*
X212327893Y-94906377D01*
X212329289Y-94904289D01*
X212361732Y-94882612D01*
X212400000Y-94875000D01*
X212700000Y-94875000D01*
X212738268Y-94882612D01*
X212770711Y-94904289D01*
X212772106Y-94906377D01*
X212784833Y-94914881D01*
X212815167Y-94914881D01*
X212827893Y-94906377D01*
X212829289Y-94904289D01*
X212861732Y-94882612D01*
X212900000Y-94875000D01*
X213200000Y-94875000D01*
X213238268Y-94882612D01*
X213270711Y-94904289D01*
X213272106Y-94906377D01*
X213284833Y-94914881D01*
X213315167Y-94914881D01*
X213327893Y-94906377D01*
X213329289Y-94904289D01*
X213361732Y-94882612D01*
X213400000Y-94875000D01*
X213700000Y-94875000D01*
X213738268Y-94882612D01*
X213770711Y-94904289D01*
X213772106Y-94906377D01*
X213784833Y-94914881D01*
X213815167Y-94914881D01*
X213827893Y-94906377D01*
X213829289Y-94904289D01*
X213861732Y-94882612D01*
X213900000Y-94875000D01*
X214200000Y-94875000D01*
X214238268Y-94882612D01*
X214270711Y-94904289D01*
X214272106Y-94906377D01*
X214284833Y-94914881D01*
X214315167Y-94914881D01*
X214327893Y-94906377D01*
X214329289Y-94904289D01*
X214361732Y-94882612D01*
X214400000Y-94875000D01*
X214700000Y-94875000D01*
X214738268Y-94882612D01*
X214770711Y-94904289D01*
X214772106Y-94906377D01*
X214784833Y-94914881D01*
X214815167Y-94914881D01*
X214827893Y-94906377D01*
X214829289Y-94904289D01*
X214861732Y-94882612D01*
X214900000Y-94875000D01*
X215200000Y-94875000D01*
X215238268Y-94882612D01*
X215270711Y-94904289D01*
X215272106Y-94906377D01*
X215284833Y-94914881D01*
X215315167Y-94914881D01*
X215327893Y-94906377D01*
X215329289Y-94904289D01*
X215361732Y-94882612D01*
X215400000Y-94875000D01*
X215700000Y-94875000D01*
X215738268Y-94882612D01*
X215770711Y-94904289D01*
X215772106Y-94906377D01*
X215784833Y-94914881D01*
X215815167Y-94914881D01*
X215827893Y-94906377D01*
X215829289Y-94904289D01*
X215861732Y-94882612D01*
X215900000Y-94875000D01*
X216200000Y-94875000D01*
X216238268Y-94882612D01*
X216270711Y-94904289D01*
X216272106Y-94906377D01*
X216284833Y-94914881D01*
X216315167Y-94914881D01*
X216327893Y-94906377D01*
X216329289Y-94904289D01*
X216361732Y-94882612D01*
X216400000Y-94875000D01*
X216700000Y-94875000D01*
X216872967Y-94875000D01*
X216899663Y-94816542D01*
X216878639Y-94792280D01*
X216846168Y-94759809D01*
X216839982Y-94747669D01*
X216832899Y-94739495D01*
X216807677Y-94684266D01*
X216785801Y-94641332D01*
X216784596Y-94633725D01*
X216782708Y-94629591D01*
X216770571Y-94545177D01*
X216765000Y-94510000D01*
X216770571Y-94474825D01*
X216782708Y-94390408D01*
X216784596Y-94386272D01*
X216785801Y-94378668D01*
X216807674Y-94335738D01*
X216832898Y-94280507D01*
X216839982Y-94272331D01*
X216846168Y-94260191D01*
X216878636Y-94227722D01*
X216912021Y-94189195D01*
X216926413Y-94179945D01*
X216940191Y-94166168D01*
X216977168Y-94147326D01*
X217013662Y-94123874D01*
X217036166Y-94117266D01*
X217058668Y-94105801D01*
X217094591Y-94100111D01*
X217129590Y-94089835D01*
X217159473Y-94089835D01*
X217190000Y-94085000D01*
X217220527Y-94089835D01*
G37*
G36*
X152838268Y-93007612D02*
G01*
X152870711Y-93029289D01*
X152892388Y-93061732D01*
X152900000Y-93100000D01*
X152900000Y-96100000D01*
X152892388Y-96138268D01*
X152870711Y-96170711D01*
X152838268Y-96192388D01*
X152800000Y-96200000D01*
X148800000Y-96200000D01*
X148761732Y-96192388D01*
X148729289Y-96170711D01*
X148707612Y-96138268D01*
X148700000Y-96100000D01*
X148700000Y-93100000D01*
X148707612Y-93061732D01*
X148729289Y-93029289D01*
X148761732Y-93007612D01*
X148800000Y-93000000D01*
X152800000Y-93000000D01*
X152838268Y-93007612D01*
G37*
G36*
X210190476Y-93901866D02*
G01*
X210314819Y-93973656D01*
X210416344Y-94075181D01*
X210488134Y-94199524D01*
X210525295Y-94338211D01*
X210530000Y-95610000D01*
X210525295Y-95681789D01*
X210488134Y-95820476D01*
X210416344Y-95944819D01*
X210314819Y-96046344D01*
X210190476Y-96118134D01*
X210051789Y-96155295D01*
X209908211Y-96155295D01*
X209769524Y-96118134D01*
X209645181Y-96046344D01*
X209543656Y-95944819D01*
X209471866Y-95820476D01*
X209434705Y-95681789D01*
X209430000Y-94410000D01*
X209434705Y-94338211D01*
X209471866Y-94199524D01*
X209543656Y-94075181D01*
X209645181Y-93973656D01*
X209769524Y-93901866D01*
X209908211Y-93864705D01*
X210051789Y-93864705D01*
X210190476Y-93901866D01*
G37*
G36*
X218830476Y-93901866D02*
G01*
X218954819Y-93973656D01*
X219056344Y-94075181D01*
X219128134Y-94199524D01*
X219165295Y-94338211D01*
X219170000Y-95610000D01*
X219165295Y-95681789D01*
X219128134Y-95820476D01*
X219056344Y-95944819D01*
X218954819Y-96046344D01*
X218830476Y-96118134D01*
X218691789Y-96155295D01*
X218548211Y-96155295D01*
X218409524Y-96118134D01*
X218285181Y-96046344D01*
X218183656Y-95944819D01*
X218111866Y-95820476D01*
X218074705Y-95681789D01*
X218070000Y-94410000D01*
X218074705Y-94338211D01*
X218111866Y-94199524D01*
X218183656Y-94075181D01*
X218285181Y-93973656D01*
X218409524Y-93901866D01*
X218548211Y-93864705D01*
X218691789Y-93864705D01*
X218830476Y-93901866D01*
G37*
G36*
X175108268Y-93147612D02*
G01*
X175140711Y-93169289D01*
X175162388Y-93201732D01*
X175170000Y-93240000D01*
X175170000Y-95240000D01*
X175162388Y-95278268D01*
X175140711Y-95310711D01*
X175108268Y-95332388D01*
X175070000Y-95340000D01*
X173770000Y-95340000D01*
X173731732Y-95332388D01*
X173699289Y-95310711D01*
X173677612Y-95278268D01*
X173670000Y-95240000D01*
X173670000Y-93240000D01*
X173677612Y-93201732D01*
X173699289Y-93169289D01*
X173731732Y-93147612D01*
X173770000Y-93140000D01*
X175070000Y-93140000D01*
X175108268Y-93147612D01*
G37*
G36*
X177648268Y-93147612D02*
G01*
X177680711Y-93169289D01*
X177702388Y-93201732D01*
X177710000Y-93240000D01*
X177710000Y-95240000D01*
X177702388Y-95278268D01*
X177680711Y-95310711D01*
X177648268Y-95332388D01*
X177610000Y-95340000D01*
X176310000Y-95340000D01*
X176271732Y-95332388D01*
X176239289Y-95310711D01*
X176217612Y-95278268D01*
X176210000Y-95240000D01*
X176210000Y-93240000D01*
X176217612Y-93201732D01*
X176239289Y-93169289D01*
X176271732Y-93147612D01*
X176310000Y-93140000D01*
X177610000Y-93140000D01*
X177648268Y-93147612D01*
G37*
G36*
X180188268Y-93147612D02*
G01*
X180220711Y-93169289D01*
X180242388Y-93201732D01*
X180250000Y-93240000D01*
X180250000Y-95240000D01*
X180242388Y-95278268D01*
X180220711Y-95310711D01*
X180188268Y-95332388D01*
X180150000Y-95340000D01*
X178850000Y-95340000D01*
X178811732Y-95332388D01*
X178779289Y-95310711D01*
X178757612Y-95278268D01*
X178750000Y-95240000D01*
X178750000Y-93240000D01*
X178757612Y-93201732D01*
X178779289Y-93169289D01*
X178811732Y-93147612D01*
X178850000Y-93140000D01*
X180150000Y-93140000D01*
X180188268Y-93147612D01*
G37*
G36*
X182728268Y-93147612D02*
G01*
X182760711Y-93169289D01*
X182782388Y-93201732D01*
X182790000Y-93240000D01*
X182790000Y-95240000D01*
X182782388Y-95278268D01*
X182760711Y-95310711D01*
X182728268Y-95332388D01*
X182690000Y-95340000D01*
X181390000Y-95340000D01*
X181351732Y-95332388D01*
X181319289Y-95310711D01*
X181297612Y-95278268D01*
X181290000Y-95240000D01*
X181290000Y-93240000D01*
X181297612Y-93201732D01*
X181319289Y-93169289D01*
X181351732Y-93147612D01*
X181390000Y-93140000D01*
X182690000Y-93140000D01*
X182728268Y-93147612D01*
G37*
G36*
X221343680Y-91242840D02*
G01*
X221562374Y-91317917D01*
X221765727Y-91427967D01*
X221948194Y-91569987D01*
X222104797Y-91740102D01*
X222231263Y-91933674D01*
X222324144Y-92145421D01*
X222380906Y-92369568D01*
X222400000Y-92600000D01*
X222380906Y-92830432D01*
X222324144Y-93054579D01*
X222231263Y-93266326D01*
X222104797Y-93459898D01*
X221948194Y-93630013D01*
X221765727Y-93772033D01*
X221562374Y-93882083D01*
X221343680Y-93957160D01*
X221115611Y-93995218D01*
X220884389Y-93995218D01*
X220656320Y-93957160D01*
X220437626Y-93882083D01*
X220234273Y-93772033D01*
X220051806Y-93630013D01*
X219895203Y-93459898D01*
X219768737Y-93266326D01*
X219675856Y-93054579D01*
X219619094Y-92830432D01*
X219600000Y-92600000D01*
X219619094Y-92369568D01*
X219675856Y-92145421D01*
X219768737Y-91933674D01*
X219895203Y-91740102D01*
X220051806Y-91569987D01*
X220234273Y-91427967D01*
X220437626Y-91317917D01*
X220656320Y-91242840D01*
X220884389Y-91204782D01*
X221115611Y-91204782D01*
X221343680Y-91242840D01*
G37*
G36*
X151343680Y-89742840D02*
G01*
X151562374Y-89817917D01*
X151765727Y-89927967D01*
X151948194Y-90069987D01*
X152104797Y-90240102D01*
X152231263Y-90433674D01*
X152324144Y-90645421D01*
X152380906Y-90869568D01*
X152400000Y-91100000D01*
X152380906Y-91330432D01*
X152324144Y-91554579D01*
X152231263Y-91766326D01*
X152104797Y-91959898D01*
X151948194Y-92130013D01*
X151765727Y-92272033D01*
X151562374Y-92382083D01*
X151343680Y-92457160D01*
X151115611Y-92495218D01*
X150884389Y-92495218D01*
X150656320Y-92457160D01*
X150437626Y-92382083D01*
X150234273Y-92272033D01*
X150051806Y-92130013D01*
X149895203Y-91959898D01*
X149768737Y-91766326D01*
X149675856Y-91554579D01*
X149619094Y-91330432D01*
X149600000Y-91100000D01*
X149619094Y-90869568D01*
X149675856Y-90645421D01*
X149768737Y-90433674D01*
X149895203Y-90240102D01*
X150051806Y-90069987D01*
X150234273Y-89927967D01*
X150437626Y-89817917D01*
X150656320Y-89742840D01*
X150884389Y-89704782D01*
X151115611Y-89704782D01*
X151343680Y-89742840D01*
G37*
G36*
X210048858Y-89935133D02*
G01*
X210058316Y-89935133D01*
X210085563Y-89942433D01*
X210154099Y-89956066D01*
X210186448Y-89969465D01*
X210209610Y-89975672D01*
X210230377Y-89987662D01*
X210262722Y-90001060D01*
X210320816Y-90039877D01*
X210345257Y-90053988D01*
X210351946Y-90060677D01*
X210360481Y-90066380D01*
X210443619Y-90149518D01*
X210449321Y-90158052D01*
X210456012Y-90164743D01*
X210470124Y-90189186D01*
X210508939Y-90247277D01*
X210522335Y-90279618D01*
X210534328Y-90300390D01*
X210540535Y-90323555D01*
X210553933Y-90355900D01*
X210567563Y-90424428D01*
X210574867Y-90451684D01*
X210574941Y-90461518D01*
X210576893Y-90471330D01*
X210579994Y-91128878D01*
X210579991Y-91128921D01*
X210580000Y-91130000D01*
X210579755Y-91133724D01*
X210577110Y-91187577D01*
X210575791Y-91194203D01*
X210574867Y-91208316D01*
X210567562Y-91235576D01*
X210553933Y-91304099D01*
X210540535Y-91336441D01*
X210534328Y-91359610D01*
X210522334Y-91380383D01*
X210508939Y-91412722D01*
X210470128Y-91470805D01*
X210456012Y-91495257D01*
X210449319Y-91501949D01*
X210443619Y-91510481D01*
X210360481Y-91593619D01*
X210351949Y-91599319D01*
X210345257Y-91606012D01*
X210320805Y-91620128D01*
X210262722Y-91658939D01*
X210230383Y-91672334D01*
X210209610Y-91684328D01*
X210186441Y-91690535D01*
X210154099Y-91703933D01*
X210085569Y-91717564D01*
X210058316Y-91724867D01*
X210048858Y-91724867D01*
X210038788Y-91726870D01*
X209921212Y-91726870D01*
X209911142Y-91724867D01*
X209901684Y-91724867D01*
X209874432Y-91717564D01*
X209805900Y-91703933D01*
X209773555Y-91690535D01*
X209750390Y-91684328D01*
X209729618Y-91672335D01*
X209697277Y-91658939D01*
X209639186Y-91620124D01*
X209614743Y-91606012D01*
X209608052Y-91599321D01*
X209599518Y-91593619D01*
X209516380Y-91510481D01*
X209510677Y-91501946D01*
X209503988Y-91495257D01*
X209489877Y-91470816D01*
X209451060Y-91412722D01*
X209437662Y-91380377D01*
X209425672Y-91359610D01*
X209419465Y-91336448D01*
X209406066Y-91304099D01*
X209392433Y-91235560D01*
X209385133Y-91208316D01*
X209385058Y-91198485D01*
X209383106Y-91188669D01*
X209380005Y-90531121D01*
X209380008Y-90531059D01*
X209380000Y-90530000D01*
X209380239Y-90526339D01*
X209382889Y-90472422D01*
X209384208Y-90465787D01*
X209385133Y-90451684D01*
X209392432Y-90424440D01*
X209406066Y-90355900D01*
X209419466Y-90323548D01*
X209425672Y-90300390D01*
X209437660Y-90279624D01*
X209451060Y-90247277D01*
X209489881Y-90189175D01*
X209503988Y-90164743D01*
X209510675Y-90158055D01*
X209516380Y-90149518D01*
X209599518Y-90066380D01*
X209608055Y-90060675D01*
X209614743Y-90053988D01*
X209639175Y-90039881D01*
X209697277Y-90001060D01*
X209729624Y-89987660D01*
X209750390Y-89975672D01*
X209773548Y-89969466D01*
X209805900Y-89956066D01*
X209874437Y-89942433D01*
X209901684Y-89935133D01*
X209911142Y-89935133D01*
X209921212Y-89933130D01*
X210038788Y-89933130D01*
X210048858Y-89935133D01*
G37*
G36*
X218688858Y-89935133D02*
G01*
X218698316Y-89935133D01*
X218725563Y-89942433D01*
X218794099Y-89956066D01*
X218826448Y-89969465D01*
X218849610Y-89975672D01*
X218870377Y-89987662D01*
X218902722Y-90001060D01*
X218960816Y-90039877D01*
X218985257Y-90053988D01*
X218991946Y-90060677D01*
X219000481Y-90066380D01*
X219083619Y-90149518D01*
X219089321Y-90158052D01*
X219096012Y-90164743D01*
X219110124Y-90189186D01*
X219148939Y-90247277D01*
X219162335Y-90279618D01*
X219174328Y-90300390D01*
X219180535Y-90323555D01*
X219193933Y-90355900D01*
X219207563Y-90424428D01*
X219214867Y-90451684D01*
X219214941Y-90461518D01*
X219216893Y-90471330D01*
X219219994Y-91128878D01*
X219219991Y-91128921D01*
X219220000Y-91130000D01*
X219219755Y-91133724D01*
X219217110Y-91187577D01*
X219215791Y-91194203D01*
X219214867Y-91208316D01*
X219207562Y-91235576D01*
X219193933Y-91304099D01*
X219180535Y-91336441D01*
X219174328Y-91359610D01*
X219162334Y-91380383D01*
X219148939Y-91412722D01*
X219110128Y-91470805D01*
X219096012Y-91495257D01*
X219089319Y-91501949D01*
X219083619Y-91510481D01*
X219000481Y-91593619D01*
X218991949Y-91599319D01*
X218985257Y-91606012D01*
X218960805Y-91620128D01*
X218902722Y-91658939D01*
X218870383Y-91672334D01*
X218849610Y-91684328D01*
X218826441Y-91690535D01*
X218794099Y-91703933D01*
X218725569Y-91717564D01*
X218698316Y-91724867D01*
X218688858Y-91724867D01*
X218678788Y-91726870D01*
X218561212Y-91726870D01*
X218551142Y-91724867D01*
X218541684Y-91724867D01*
X218514432Y-91717564D01*
X218445900Y-91703933D01*
X218413555Y-91690535D01*
X218390390Y-91684328D01*
X218369618Y-91672335D01*
X218337277Y-91658939D01*
X218279186Y-91620124D01*
X218254743Y-91606012D01*
X218248052Y-91599321D01*
X218239518Y-91593619D01*
X218156380Y-91510481D01*
X218150677Y-91501946D01*
X218143988Y-91495257D01*
X218129877Y-91470816D01*
X218091060Y-91412722D01*
X218077662Y-91380377D01*
X218065672Y-91359610D01*
X218059465Y-91336448D01*
X218046066Y-91304099D01*
X218032433Y-91235560D01*
X218025133Y-91208316D01*
X218025058Y-91198485D01*
X218023106Y-91188669D01*
X218020005Y-90531121D01*
X218020008Y-90531059D01*
X218020000Y-90530000D01*
X218020239Y-90526339D01*
X218022889Y-90472422D01*
X218024208Y-90465787D01*
X218025133Y-90451684D01*
X218032432Y-90424440D01*
X218046066Y-90355900D01*
X218059466Y-90323548D01*
X218065672Y-90300390D01*
X218077660Y-90279624D01*
X218091060Y-90247277D01*
X218129881Y-90189175D01*
X218143988Y-90164743D01*
X218150675Y-90158055D01*
X218156380Y-90149518D01*
X218239518Y-90066380D01*
X218248055Y-90060675D01*
X218254743Y-90053988D01*
X218279175Y-90039881D01*
X218337277Y-90001060D01*
X218369624Y-89987660D01*
X218390390Y-89975672D01*
X218413548Y-89969466D01*
X218445900Y-89956066D01*
X218514437Y-89942433D01*
X218541684Y-89935133D01*
X218551142Y-89935133D01*
X218561212Y-89933130D01*
X218678788Y-89933130D01*
X218688858Y-89935133D01*
G37*
M02*
