G04 #@! TF.GenerationSoftware,KiCad,Pcbnew,8.0.1*
G04 #@! TF.CreationDate,2024-04-28T03:10:52-05:00*
G04 #@! TF.ProjectId,mini_ble,6d696e69-5f62-46c6-952e-6b696361645f,rev?*
G04 #@! TF.SameCoordinates,Original*
G04 #@! TF.FileFunction,Profile,NP*
%FSLAX46Y46*%
G04 Gerber Fmt 4.6, Leading zero omitted, Abs format (unit mm)*
G04 Created by KiCad (PCBNEW 8.0.1) date 2024-04-28 03:10:52*
%MOMM*%
%LPD*%
G01*
G04 APERTURE LIST*
G04 #@! TA.AperFunction,Profile*
%ADD10C,0.100000*%
G04 #@! TD*
%ADD11C,0.100000*%
G04 APERTURE END LIST*
D10*
X223300000Y-113411718D02*
X223300000Y-108900000D01*
X211600000Y-108400000D02*
X211600000Y-101800000D01*
X212100000Y-108900000D02*
G75*
G02*
X211600000Y-108400000I0J500000D01*
G01*
X211600000Y-101800000D02*
G75*
G02*
X212100000Y-101300000I500000J0D01*
G01*
X219300000Y-89500000D02*
G75*
G02*
X223300000Y-93500000I0J-4000000D01*
G01*
X148500000Y-96600000D02*
G75*
G02*
X149500000Y-97600000I0J-1000000D01*
G01*
X148500000Y-113600000D02*
X148500000Y-119700000D01*
X149500000Y-112600000D02*
X149500000Y-97600000D01*
X223300000Y-101300000D02*
X223300000Y-93500000D01*
X148500000Y-90500000D02*
G75*
G02*
X149500000Y-89500000I1000000J0D01*
G01*
X219300000Y-89500000D02*
X149500000Y-89500000D01*
X148500000Y-90500000D02*
X148500000Y-96600000D01*
X212100000Y-108900000D02*
X223300000Y-108900000D01*
X149500000Y-120700000D02*
G75*
G02*
X148500000Y-119700000I0J1000000D01*
G01*
X223300000Y-101300000D02*
X212100000Y-101300000D01*
X149500000Y-112600000D02*
G75*
G02*
X148500000Y-113600000I-1000000J0D01*
G01*
D11*
X212041583Y-120699999D02*
X212546374Y-120691007D01*
X213053026Y-120664274D01*
X213560365Y-120620161D01*
X214067220Y-120559033D01*
X214572416Y-120481252D01*
X215074781Y-120387180D01*
X215573142Y-120277180D01*
X216066326Y-120151615D01*
X216553159Y-120010848D01*
X217032470Y-119855242D01*
X217503086Y-119685158D01*
X217963832Y-119500961D01*
X218413537Y-119303012D01*
X218851027Y-119091675D01*
X219275129Y-118867312D01*
X219684671Y-118630287D01*
X220078480Y-118380960D01*
X220455382Y-118119697D01*
X220814204Y-117846859D01*
X221153775Y-117562809D01*
X221472920Y-117267909D01*
X221770468Y-116962523D01*
X222045244Y-116647014D01*
X222296076Y-116321743D01*
X222521792Y-115987075D01*
X222721217Y-115643371D01*
X222893180Y-115290994D01*
X223036507Y-114930308D01*
X223150025Y-114561674D01*
X223232562Y-114185456D01*
X223282944Y-113802016D01*
X223299999Y-113411718D01*
D10*
X149500000Y-120700000D02*
X212041583Y-120700000D01*
M02*
