G04 #@! TF.GenerationSoftware,KiCad,Pcbnew,8.0.1*
G04 #@! TF.CreationDate,2024-04-28T03:10:51-05:00*
G04 #@! TF.ProjectId,mini_ble,6d696e69-5f62-46c6-952e-6b696361645f,rev?*
G04 #@! TF.SameCoordinates,Original*
G04 #@! TF.FileFunction,Legend,Top*
G04 #@! TF.FilePolarity,Positive*
%FSLAX46Y46*%
G04 Gerber Fmt 4.6, Leading zero omitted, Abs format (unit mm)*
G04 Created by KiCad (PCBNEW 8.0.1) date 2024-04-28 03:10:51*
%MOMM*%
%LPD*%
G01*
G04 APERTURE LIST*
%ADD10C,0.150000*%
%ADD11C,0.120000*%
G04 APERTURE END LIST*
D10*
X151255485Y-105571428D02*
X151284057Y-105485714D01*
X151284057Y-105485714D02*
X151312628Y-105457143D01*
X151312628Y-105457143D02*
X151369771Y-105428571D01*
X151369771Y-105428571D02*
X151455485Y-105428571D01*
X151455485Y-105428571D02*
X151512628Y-105457143D01*
X151512628Y-105457143D02*
X151541200Y-105485714D01*
X151541200Y-105485714D02*
X151569771Y-105542857D01*
X151569771Y-105542857D02*
X151569771Y-105771428D01*
X151569771Y-105771428D02*
X150969771Y-105771428D01*
X150969771Y-105771428D02*
X150969771Y-105571428D01*
X150969771Y-105571428D02*
X150998342Y-105514286D01*
X150998342Y-105514286D02*
X151026914Y-105485714D01*
X151026914Y-105485714D02*
X151084057Y-105457143D01*
X151084057Y-105457143D02*
X151141200Y-105457143D01*
X151141200Y-105457143D02*
X151198342Y-105485714D01*
X151198342Y-105485714D02*
X151226914Y-105514286D01*
X151226914Y-105514286D02*
X151255485Y-105571428D01*
X151255485Y-105571428D02*
X151255485Y-105771428D01*
X150969771Y-105257143D02*
X150969771Y-104914286D01*
X151569771Y-105085714D02*
X150969771Y-105085714D01*
X151569771Y-104400000D02*
X151569771Y-104742857D01*
X151569771Y-104571428D02*
X150969771Y-104571428D01*
X150969771Y-104571428D02*
X151055485Y-104628571D01*
X151055485Y-104628571D02*
X151112628Y-104685714D01*
X151112628Y-104685714D02*
X151141200Y-104742857D01*
X177357143Y-103069771D02*
X177357143Y-103555485D01*
X177357143Y-103555485D02*
X177385714Y-103612628D01*
X177385714Y-103612628D02*
X177414286Y-103641200D01*
X177414286Y-103641200D02*
X177471428Y-103669771D01*
X177471428Y-103669771D02*
X177585714Y-103669771D01*
X177585714Y-103669771D02*
X177642857Y-103641200D01*
X177642857Y-103641200D02*
X177671428Y-103612628D01*
X177671428Y-103612628D02*
X177700000Y-103555485D01*
X177700000Y-103555485D02*
X177700000Y-103069771D01*
X178299999Y-103669771D02*
X177957142Y-103669771D01*
X178128571Y-103669771D02*
X178128571Y-103069771D01*
X178128571Y-103069771D02*
X178071428Y-103155485D01*
X178071428Y-103155485D02*
X178014285Y-103212628D01*
X178014285Y-103212628D02*
X177957142Y-103241200D01*
X178528571Y-103126914D02*
X178557143Y-103098342D01*
X178557143Y-103098342D02*
X178614286Y-103069771D01*
X178614286Y-103069771D02*
X178757143Y-103069771D01*
X178757143Y-103069771D02*
X178814286Y-103098342D01*
X178814286Y-103098342D02*
X178842857Y-103126914D01*
X178842857Y-103126914D02*
X178871428Y-103184057D01*
X178871428Y-103184057D02*
X178871428Y-103241200D01*
X178871428Y-103241200D02*
X178842857Y-103326914D01*
X178842857Y-103326914D02*
X178500000Y-103669771D01*
X178500000Y-103669771D02*
X178871428Y-103669771D01*
X214569771Y-105842856D02*
X215055485Y-105842856D01*
X215055485Y-105842856D02*
X215112628Y-105814285D01*
X215112628Y-105814285D02*
X215141200Y-105785714D01*
X215141200Y-105785714D02*
X215169771Y-105728571D01*
X215169771Y-105728571D02*
X215169771Y-105614285D01*
X215169771Y-105614285D02*
X215141200Y-105557142D01*
X215141200Y-105557142D02*
X215112628Y-105528571D01*
X215112628Y-105528571D02*
X215055485Y-105499999D01*
X215055485Y-105499999D02*
X214569771Y-105499999D01*
X215169771Y-104900000D02*
X215169771Y-105242857D01*
X215169771Y-105071428D02*
X214569771Y-105071428D01*
X214569771Y-105071428D02*
X214655485Y-105128571D01*
X214655485Y-105128571D02*
X214712628Y-105185714D01*
X214712628Y-105185714D02*
X214741200Y-105242857D01*
X215169771Y-104614285D02*
X215169771Y-104499999D01*
X215169771Y-104499999D02*
X215141200Y-104442856D01*
X215141200Y-104442856D02*
X215112628Y-104414285D01*
X215112628Y-104414285D02*
X215026914Y-104357142D01*
X215026914Y-104357142D02*
X214912628Y-104328571D01*
X214912628Y-104328571D02*
X214684057Y-104328571D01*
X214684057Y-104328571D02*
X214626914Y-104357142D01*
X214626914Y-104357142D02*
X214598342Y-104385714D01*
X214598342Y-104385714D02*
X214569771Y-104442856D01*
X214569771Y-104442856D02*
X214569771Y-104557142D01*
X214569771Y-104557142D02*
X214598342Y-104614285D01*
X214598342Y-104614285D02*
X214626914Y-104642856D01*
X214626914Y-104642856D02*
X214684057Y-104671428D01*
X214684057Y-104671428D02*
X214826914Y-104671428D01*
X214826914Y-104671428D02*
X214884057Y-104642856D01*
X214884057Y-104642856D02*
X214912628Y-104614285D01*
X214912628Y-104614285D02*
X214941200Y-104557142D01*
X214941200Y-104557142D02*
X214941200Y-104442856D01*
X214941200Y-104442856D02*
X214912628Y-104385714D01*
X214912628Y-104385714D02*
X214884057Y-104357142D01*
X214884057Y-104357142D02*
X214826914Y-104328571D01*
X210214285Y-98569771D02*
X210014285Y-98284057D01*
X209871428Y-98569771D02*
X209871428Y-97969771D01*
X209871428Y-97969771D02*
X210099999Y-97969771D01*
X210099999Y-97969771D02*
X210157142Y-97998342D01*
X210157142Y-97998342D02*
X210185713Y-98026914D01*
X210185713Y-98026914D02*
X210214285Y-98084057D01*
X210214285Y-98084057D02*
X210214285Y-98169771D01*
X210214285Y-98169771D02*
X210185713Y-98226914D01*
X210185713Y-98226914D02*
X210157142Y-98255485D01*
X210157142Y-98255485D02*
X210099999Y-98284057D01*
X210099999Y-98284057D02*
X209871428Y-98284057D01*
X210785713Y-98569771D02*
X210442856Y-98569771D01*
X210614285Y-98569771D02*
X210614285Y-97969771D01*
X210614285Y-97969771D02*
X210557142Y-98055485D01*
X210557142Y-98055485D02*
X210499999Y-98112628D01*
X210499999Y-98112628D02*
X210442856Y-98141200D01*
X211014285Y-98026914D02*
X211042857Y-97998342D01*
X211042857Y-97998342D02*
X211100000Y-97969771D01*
X211100000Y-97969771D02*
X211242857Y-97969771D01*
X211242857Y-97969771D02*
X211300000Y-97998342D01*
X211300000Y-97998342D02*
X211328571Y-98026914D01*
X211328571Y-98026914D02*
X211357142Y-98084057D01*
X211357142Y-98084057D02*
X211357142Y-98141200D01*
X211357142Y-98141200D02*
X211328571Y-98226914D01*
X211328571Y-98226914D02*
X210985714Y-98569771D01*
X210985714Y-98569771D02*
X211357142Y-98569771D01*
X220114285Y-97069771D02*
X219914285Y-96784057D01*
X219771428Y-97069771D02*
X219771428Y-96469771D01*
X219771428Y-96469771D02*
X219999999Y-96469771D01*
X219999999Y-96469771D02*
X220057142Y-96498342D01*
X220057142Y-96498342D02*
X220085713Y-96526914D01*
X220085713Y-96526914D02*
X220114285Y-96584057D01*
X220114285Y-96584057D02*
X220114285Y-96669771D01*
X220114285Y-96669771D02*
X220085713Y-96726914D01*
X220085713Y-96726914D02*
X220057142Y-96755485D01*
X220057142Y-96755485D02*
X219999999Y-96784057D01*
X219999999Y-96784057D02*
X219771428Y-96784057D01*
X220685713Y-97069771D02*
X220342856Y-97069771D01*
X220514285Y-97069771D02*
X220514285Y-96469771D01*
X220514285Y-96469771D02*
X220457142Y-96555485D01*
X220457142Y-96555485D02*
X220399999Y-96612628D01*
X220399999Y-96612628D02*
X220342856Y-96641200D01*
X221257142Y-97069771D02*
X220914285Y-97069771D01*
X221085714Y-97069771D02*
X221085714Y-96469771D01*
X221085714Y-96469771D02*
X221028571Y-96555485D01*
X221028571Y-96555485D02*
X220971428Y-96612628D01*
X220971428Y-96612628D02*
X220914285Y-96641200D01*
X218299999Y-116069771D02*
X218299999Y-116498342D01*
X218299999Y-116498342D02*
X218271428Y-116584057D01*
X218271428Y-116584057D02*
X218214285Y-116641200D01*
X218214285Y-116641200D02*
X218128571Y-116669771D01*
X218128571Y-116669771D02*
X218071428Y-116669771D01*
X218528571Y-116069771D02*
X218928571Y-116069771D01*
X218928571Y-116069771D02*
X218671428Y-116669771D01*
X220625071Y-92507914D02*
X220928117Y-92810960D01*
X220928117Y-92810960D02*
X220968523Y-92891772D01*
X220968523Y-92891772D02*
X220968523Y-92972584D01*
X220968523Y-92972584D02*
X220928117Y-93053397D01*
X220928117Y-93053397D02*
X220887711Y-93093803D01*
X221150351Y-92265477D02*
X221433193Y-92548320D01*
X220887711Y-92204868D02*
X221089741Y-92608929D01*
X221089741Y-92608929D02*
X221352381Y-92346290D01*
X150799999Y-118769771D02*
X150799999Y-119198342D01*
X150799999Y-119198342D02*
X150771428Y-119284057D01*
X150771428Y-119284057D02*
X150714285Y-119341200D01*
X150714285Y-119341200D02*
X150628571Y-119369771D01*
X150628571Y-119369771D02*
X150571428Y-119369771D01*
X151057142Y-118826914D02*
X151085714Y-118798342D01*
X151085714Y-118798342D02*
X151142857Y-118769771D01*
X151142857Y-118769771D02*
X151285714Y-118769771D01*
X151285714Y-118769771D02*
X151342857Y-118798342D01*
X151342857Y-118798342D02*
X151371428Y-118826914D01*
X151371428Y-118826914D02*
X151399999Y-118884057D01*
X151399999Y-118884057D02*
X151399999Y-118941200D01*
X151399999Y-118941200D02*
X151371428Y-119026914D01*
X151371428Y-119026914D02*
X151028571Y-119369771D01*
X151028571Y-119369771D02*
X151399999Y-119369771D01*
X150799999Y-90769771D02*
X150799999Y-91198342D01*
X150799999Y-91198342D02*
X150771428Y-91284057D01*
X150771428Y-91284057D02*
X150714285Y-91341200D01*
X150714285Y-91341200D02*
X150628571Y-91369771D01*
X150628571Y-91369771D02*
X150571428Y-91369771D01*
X151399999Y-91369771D02*
X151057142Y-91369771D01*
X151228571Y-91369771D02*
X151228571Y-90769771D01*
X151228571Y-90769771D02*
X151171428Y-90855485D01*
X151171428Y-90855485D02*
X151114285Y-90912628D01*
X151114285Y-90912628D02*
X151057142Y-90941200D01*
X213557143Y-92069771D02*
X213557143Y-92555485D01*
X213557143Y-92555485D02*
X213585714Y-92612628D01*
X213585714Y-92612628D02*
X213614286Y-92641200D01*
X213614286Y-92641200D02*
X213671428Y-92669771D01*
X213671428Y-92669771D02*
X213785714Y-92669771D01*
X213785714Y-92669771D02*
X213842857Y-92641200D01*
X213842857Y-92641200D02*
X213871428Y-92612628D01*
X213871428Y-92612628D02*
X213900000Y-92555485D01*
X213900000Y-92555485D02*
X213900000Y-92069771D01*
X214499999Y-92669771D02*
X214157142Y-92669771D01*
X214328571Y-92669771D02*
X214328571Y-92069771D01*
X214328571Y-92069771D02*
X214271428Y-92155485D01*
X214271428Y-92155485D02*
X214214285Y-92212628D01*
X214214285Y-92212628D02*
X214157142Y-92241200D01*
X215071428Y-92669771D02*
X214728571Y-92669771D01*
X214900000Y-92669771D02*
X214900000Y-92069771D01*
X214900000Y-92069771D02*
X214842857Y-92155485D01*
X214842857Y-92155485D02*
X214785714Y-92212628D01*
X214785714Y-92212628D02*
X214728571Y-92241200D01*
X170400000Y-108650000D02*
X169400000Y-109650000D01*
X170400000Y-116650000D02*
X170400000Y-108650000D01*
X170400000Y-108650000D02*
X171400000Y-109650000D01*
X187400000Y-116650000D02*
X187400000Y-108650000D01*
X187400000Y-108650000D02*
X188400000Y-109650000D01*
X186400000Y-109650000D02*
X187400000Y-108650000D01*
X209200000Y-120650000D02*
X153200000Y-120650000D01*
X209200000Y-89550000D02*
X209200000Y-120650000D01*
X153200000Y-89550000D02*
X209200000Y-89550000D01*
X153200000Y-120650000D02*
X153200000Y-89550000D01*
D11*
X222100000Y-105100000D02*
G75*
G02*
X217500000Y-105100000I-2300000J0D01*
G01*
X217500000Y-105100000D02*
G75*
G02*
X222100000Y-105100000I2300000J0D01*
G01*
X219800000Y-108900000D02*
X219800000Y-101300000D01*
X212100000Y-108900000D02*
X219800000Y-108900000D01*
X212100000Y-101300000D02*
X212100000Y-108900000D01*
X219800000Y-101300000D02*
X212100000Y-101300000D01*
D10*
X220000000Y-116400000D02*
G75*
G02*
X217000000Y-116400000I-1500000J0D01*
G01*
X217000000Y-116400000D02*
G75*
G02*
X220000000Y-116400000I1500000J0D01*
G01*
X222500000Y-92600000D02*
G75*
G02*
X219500000Y-92600000I-1500000J0D01*
G01*
X219500000Y-92600000D02*
G75*
G02*
X222500000Y-92600000I1500000J0D01*
G01*
X152500000Y-119100000D02*
G75*
G02*
X149500000Y-119100000I-1500000J0D01*
G01*
X149500000Y-119100000D02*
G75*
G02*
X152500000Y-119100000I1500000J0D01*
G01*
X152500000Y-91100000D02*
G75*
G02*
X149500000Y-91100000I-1500000J0D01*
G01*
X149500000Y-91100000D02*
G75*
G02*
X152500000Y-91100000I1500000J0D01*
G01*
X209700000Y-88050000D02*
X218900000Y-88050000D01*
X218900000Y-88050000D02*
X218900000Y-90000000D01*
X218900000Y-91650000D02*
X218900000Y-93950000D01*
X209700000Y-88050000D02*
X209700000Y-90000000D01*
X209700000Y-91650000D02*
X209700000Y-93950000D01*
M02*
