M48
; DRILL file {KiCad 8.0.1} date 2024-04-28T03:11:28-0500
; FORMAT={-:-/ absolute / inch / decimal}
; #@! TF.CreationDate,2024-04-28T03:11:28-05:00
; #@! TF.GenerationSoftware,Kicad,Pcbnew,8.0.1
; #@! TF.FileFunction,Plated,1,4,PTH
FMAT,2
INCH
; #@! TA.AperFunction,Plated,PTH,ViaDrill
T1C0.0118
; #@! TA.AperFunction,Plated,PTH,ComponentDrill
T2C0.0157
; #@! TA.AperFunction,Plated,PTH,ComponentDrill
T3C0.0197
; #@! TA.AperFunction,Plated,PTH,ComponentDrill
T4C0.0236
; #@! TA.AperFunction,Plated,PTH,ComponentDrill
T5C0.0591
%
G90
G05
T1
X6.0906Y-3.9724
X6.0906Y-4.0138
X6.0906Y-4.0689
X6.0906Y-4.2205
X6.0906Y-4.3445
X6.0906Y-4.4272
X6.1024Y-3.6142
X6.185Y-3.7362
X6.252Y-3.8071
X6.2598Y-3.6575
X6.2795Y-3.6929
X6.2835Y-4.1378
X6.3071Y-3.6575
X6.3071Y-4.3661
X6.3071Y-4.5315
X6.3819Y-4.3661
X6.3819Y-4.5315
X6.3937Y-3.7992
X6.3937Y-3.8622
X6.3937Y-3.9213
X6.3937Y-3.9803
X6.3937Y-4.0394
X6.3937Y-4.0984
X6.4075Y-4.2165
X6.4134Y-3.9508
X6.437Y-3.8819
X6.4429Y-4.2165
X6.4469Y-3.9626
X6.4567Y-4.3661
X6.4567Y-4.5315
X6.4764Y-3.752
X6.4783Y-4.2165
X6.5118Y-3.9783
X6.5157Y-4.3661
X6.5315Y-3.6732
X6.5315Y-3.7106
X6.5315Y-4.5315
X6.5551Y-4.3661
X6.5591Y-3.5709
X6.5827Y-4.5335
X6.6083Y-3.9035
X6.6092Y-3.9449
X6.626Y-3.622
X6.6437Y-4.5551
X6.6437Y-4.5138
X6.6575Y-4.0394
X6.6654Y-3.6102
X6.6693Y-3.6693
X6.6969Y-4.4567
X6.7067Y-3.5827
X6.7106Y-4.3622
X6.7185Y-4.2126
X6.7323Y-3.8701
X6.752Y-4.6004
X6.7539Y-3.5807
X6.7795Y-4.0591
X6.815Y-4.5177
X6.8189Y-4.6732
X6.8248Y-4.0512
X6.8366Y-3.6476
X6.8445Y-4.2067
X6.8543Y-4.3661
X6.8543Y-4.4449
X6.8622Y-3.9016
X6.8839Y-4.6043
X6.9016Y-3.9016
X6.9134Y-4.1043
X6.9488Y-4.5748
X6.9515Y-4.2704
X6.9515Y-4.3211
X6.9515Y-4.3718
X6.9515Y-4.4225
X6.9685Y-3.9154
X6.9724Y-3.9882
X6.9882Y-3.6142
X7.0022Y-4.2704
X7.0022Y-4.3211
X7.0022Y-4.3718
X7.0022Y-4.4225
X7.0177Y-3.7106
X7.0177Y-4.6929
X7.0197Y-3.878
X7.0236Y-3.6142
X7.0472Y-4.5236
X7.0529Y-4.2704
X7.0529Y-4.3211
X7.0529Y-4.3718
X7.0529Y-4.4225
X7.0866Y-4.6063
X7.0906Y-4.5374
X7.0984Y-3.5571
X7.1024Y-3.9252
X7.1036Y-4.2704
X7.1036Y-4.3211
X7.1036Y-4.3718
X7.1036Y-4.4225
X7.1142Y-3.7362
X7.1181Y-4.6732
X7.1339Y-3.9843
X7.1535Y-3.5571
X7.1654Y-4.1772
X7.1732Y-4.5276
X7.1791Y-4.5709
X7.2098Y-4.4587
X7.2126Y-3.6732
X7.2126Y-4.4055
X7.2244Y-4.3661
X7.2441Y-4.2402
X7.2461Y-4.4587
X7.2835Y-3.7756
X7.2992Y-4.2756
X7.3071Y-4.4331
X7.3071Y-3.5591
X7.3189Y-4.1614
X7.3228Y-4.2402
X7.3307Y-3.7008
X7.3307Y-4.1181
X7.3465Y-4.3307
X7.378Y-4.2008
X7.4331Y-4.2047
X7.4458Y-3.6447
X7.4685Y-3.6142
X7.4764Y-3.7854
X7.4764Y-3.8346
X7.5079Y-3.6181
X7.5197Y-3.939
X7.5315Y-4.0492
X7.5743Y-3.6826
X7.5743Y-3.7505
X7.6043Y-3.5787
X7.6102Y-3.7165
X7.6339Y-3.5551
X7.6378Y-3.8563
X7.6422Y-3.6826
X7.6422Y-3.7505
X7.6535Y-4.2677
X7.6634Y-4.0748
X7.6929Y-3.878
X7.6929Y-4.0236
X7.7028Y-4.3917
X7.7165Y-3.8465
X7.7421Y-4.0886
X7.7421Y-4.126
X7.7421Y-4.1634
X7.752Y-3.7362
X7.7638Y-3.8504
X7.7795Y-4.0886
X7.7795Y-4.126
X7.7795Y-4.1634
X7.7795Y-4.2402
X7.7874Y-3.8819
X7.811Y-3.8071
X7.8169Y-4.0886
X7.8169Y-4.126
X7.8169Y-4.1634
X7.8504Y-3.6378
X7.8898Y-3.685
X7.8898Y-3.7402
X7.8937Y-4.065
X7.8976Y-4.1732
X7.9055Y-4.1201
X7.9409Y-3.8346
X7.9488Y-3.6142
X7.9488Y-3.7205
X7.9764Y-3.9016
X7.9764Y-3.937
X7.9803Y-3.8622
X8.0394Y-3.9803
X8.0394Y-4.1752
X8.0394Y-4.2323
X8.0433Y-3.6693
X8.0492Y-4.0236
X8.0512Y-3.8976
X8.0768Y-4.1339
X8.0827Y-4.0079
X8.0905Y-3.9724
X8.1122Y-4.1181
X8.1299Y-3.626
X8.1378Y-4.1831
X8.1457Y-4.252
X8.1594Y-3.811
X8.1772Y-4.2717
X8.2441Y-4.1043
X8.2835Y-3.9291
X8.3465Y-3.8346
X8.3543Y-4.315
X8.4291Y-3.8346
X8.4567Y-3.7165
X8.5315Y-3.8327
X8.5906Y-3.8976
X8.5906Y-4.3701
X8.7323Y-3.811
T5
X5.9449Y-3.5866
X5.9449Y-4.689
X8.6024Y-4.5827
X8.7008Y-3.6457
T2
G00X5.8957Y-3.7323
M15
G01X5.9783Y-3.7323
M16
G05
G00X5.8957Y-4.5433
M15
G01X5.9783Y-4.5433
M16
G05
G00X8.5187Y-3.9055
M15
G01X8.4951Y-3.9055
M16
G05
G00X8.4951Y-4.3701
M15
G01X8.5187Y-4.3701
M16
G05
G00X8.6969Y-3.9055
M15
G01X8.6594Y-3.9055
M16
G05
G00X8.6594Y-4.3701
M15
G01X8.6969Y-4.3701
M16
G05
T3
G00X8.2669Y-3.7642
M15
G01X8.2669Y-3.7169
M16
G05
G00X8.6071Y-3.7642
M15
G01X8.6071Y-3.7169
M16
G05
T4
G00X8.2669Y-3.5878
M15
G01X8.2669Y-3.5642
M16
G05
G00X8.6071Y-3.5878
M15
G01X8.6071Y-3.5642
M16
G05
M30
